<?xml version="1.0" encoding="utf-8" standalone="no"?>
<!DOCTYPE svg PUBLIC "-//W3C//DTD SVG 1.1//EN"
  "http://www.w3.org/Graphics/SVG/1.1/DTD/svg11.dtd">
<svg xmlns:xlink="http://www.w3.org/1999/xlink" width="503.146194pt" height="555.84pt" viewBox="0 0 503.146194 555.84" xmlns="http://www.w3.org/2000/svg" version="1.1">
 <metadata>
  <rdf:RDF xmlns:dc="http://purl.org/dc/elements/1.1/" xmlns:cc="http://creativecommons.org/ns#" xmlns:rdf="http://www.w3.org/1999/02/22-rdf-syntax-ns#">
   <cc:Work>
    <dc:type rdf:resource="http://purl.org/dc/dcmitype/StillImage"/>
    <dc:date>2026-06-11T11:53:56.831203</dc:date>
    <dc:format>image/svg+xml</dc:format>
    <dc:creator>
     <cc:Agent>
      <dc:title>Matplotlib v3.6.3, https://matplotlib.org/</dc:title>
     </cc:Agent>
    </dc:creator>
   </cc:Work>
  </rdf:RDF>
 </metadata>
 <defs>
  <style type="text/css">*{stroke-linejoin: round; stroke-linecap: butt}</style>
 </defs>
 <g id="figure_1">
  <g id="patch_1">
   <path d="M 0 555.84 
L 503.146194 555.84 
L 503.146194 0 
L 0 0 
z
" style="fill: #ffffff"/>
  </g>
  <g id="axes_1">
   <g id="patch_2">
    <path d="M 213.302853 178.889865 
L 214.023351 175.544416 
L 207.207373 175.195235 
L 202.233503 179.938235 
L 202.903488 185.317624 
L 203.191144 190.007642 
L 215.535497 186.795608 
L 215.515295 183.999277 
z
" clip-path="url(#p8ef6373f07)" style="fill: #ff7f0e; fill-opacity: 0.18"/>
   </g>
   <g id="patch_3">
    <path d="M 210.064879 162.546881 
L 205.378258 163.26416 
L 199.896906 170.108091 
L 211.340124 171.897392 
L 213.125329 168.623436 
z
" clip-path="url(#p8ef6373f07)" style="fill: #ff7f0e; fill-opacity: 0.18"/>
   </g>
   <g id="patch_4">
    <path d="M 362.885998 138.837768 
L 355.087654 139.404385 
L 355.474971 149.624079 
L 360.62719 150.543905 
L 366.543424 148.072727 
z
" clip-path="url(#p8ef6373f07)" style="fill: #1f77b4; fill-opacity: 0.18"/>
   </g>
   <g id="patch_5">
    <path d="M 369.610386 134.664114 
L 359.573381 135.060357 
L 355.745663 140.366344 
L 354.823102 147.577068 
L 361.017994 145.424935 
L 364.292601 146.635918 
z
" clip-path="url(#p8ef6373f07)" style="fill: #1f77b4; fill-opacity: 0.18"/>
   </g>
   <g id="patch_6">
    <path d="M 434.006904 139.537558 
L 430.404567 138.06161 
L 429.450172 151.255775 
L 441.136351 146.446448 
z
" clip-path="url(#p8ef6373f07)" style="fill: #1f77b4; fill-opacity: 0.18"/>
   </g>
   <g id="patch_7">
    <path d="M 442.115273 142.016481 
L 440.592461 138.870164 
L 435.777151 139.556333 
L 430.260579 147.038231 
L 433.282196 152.2282 
L 439.813213 149.298396 
z
" clip-path="url(#p8ef6373f07)" style="fill: #1f77b4; fill-opacity: 0.18"/>
   </g>
   <g id="patch_8">
    <path d="M 417.854457 150.988681 
L 411.690759 157.927558 
L 416.773345 162.131895 
L 424.576276 162.281826 
z
" clip-path="url(#p8ef6373f07)" style="fill: #1f77b4; fill-opacity: 0.18"/>
   </g>
   <g id="patch_9">
    <path d="M 208.160973 267.42599 
L 201.630948 269.256243 
L 203.360579 281.941745 
L 210.170265 279.140273 
z
" clip-path="url(#p8ef6373f07)" style="fill: #d62728; fill-opacity: 0.18"/>
   </g>
   <g id="patch_10">
    <path d="M 204.899671 189.374113 
L 199.530508 193.471172 
L 201.52277 195.75826 
L 200.288479 198.321056 
L 202.974267 199.335687 
L 205.150796 201.165674 
L 208.907689 203.636607 
L 214.440711 199.779929 
z
" clip-path="url(#p8ef6373f07)" style="fill: #ff7f0e; fill-opacity: 0.18"/>
   </g>
   <g id="patch_11">
    <path d="M 158.376067 154.622912 
L 147.602061 155.642155 
L 150.100428 163.416547 
L 153.623015 167.041648 
L 159.892872 165.368567 
L 161.523496 161.534877 
z
" clip-path="url(#p8ef6373f07)" style="fill: #1f77b4; fill-opacity: 0.18"/>
   </g>
   <g id="patch_12">
    <path d="M 136.297838 47.255892 
L 135.833446 40.899377 
L 128.805557 38.776236 
L 127.606783 51.256081 
L 132.463598 53.235556 
L 137.009435 53.466883 
z
" clip-path="url(#p8ef6373f07)" style="fill: #1f77b4; fill-opacity: 0.18"/>
   </g>
   <g id="patch_13">
    <path d="M 165.680147 17.130232 
L 162.277217 25.280379 
L 166.989486 29.190064 
L 173.084532 24.616262 
z
" clip-path="url(#p8ef6373f07)" style="fill: #1f77b4; fill-opacity: 0.18"/>
   </g>
   <g id="patch_14">
    <path d="M 175.117813 11.381538 
L 163.084626 13.153337 
L 164.240832 15.883058 
L 162.644318 22.174466 
L 166.140071 25.553093 
L 169.090738 25.049495 
L 176.815276 20.106082 
z
" clip-path="url(#p8ef6373f07)" style="fill: #1f77b4; fill-opacity: 0.18"/>
   </g>
   <g id="patch_15">
    <path d="M 178.804781 18.096646 
L 173.064614 17.892638 
L 171.498283 14.831212 
L 163.795788 22.745999 
L 172.38355 27.562517 
L 176.286781 29.088256 
L 178.509 25.482643 
z
" clip-path="url(#p8ef6373f07)" style="fill: #1f77b4; fill-opacity: 0.18"/>
   </g>
   <g id="patch_16">
    <path d="M 210.679005 188.78129 
L 213.305819 185.104282 
L 206.510966 187.581167 
L 199.687504 188.510657 
L 200.497285 193.968776 
L 211.191411 197.302702 
z
" clip-path="url(#p8ef6373f07)" style="fill: #ff7f0e; fill-opacity: 0.18"/>
   </g>
   <g id="patch_17">
    <path d="M 194.698898 164.719005 
L 188.859824 161.863668 
L 187.585691 164.954846 
L 186.945461 172.994112 
L 191.107857 175.660981 
L 195.807358 176.322566 
L 199.086751 174.906076 
L 196.637226 170.952962 
z
" clip-path="url(#p8ef6373f07)" style="fill: #ff7f0e; fill-opacity: 0.18"/>
   </g>
   <g id="patch_18">
    <path d="M 169.834973 130.8195 
L 160.911095 126.644378 
L 157.217694 130.749161 
L 161.237404 135.22523 
z
" clip-path="url(#p8ef6373f07)" style="fill: #1f77b4; fill-opacity: 0.18"/>
   </g>
   <g id="patch_19">
    <path d="M 134.956382 134.571235 
L 130.533662 134.654587 
L 136.280071 138.868726 
z
" clip-path="url(#p8ef6373f07)" style="fill: #1f77b4; fill-opacity: 0.18"/>
   </g>
   <g id="patch_20">
    <path d="M 153.03845 266.722356 
L 141.54571 272.536299 
L 150.287099 278.395153 
z
" clip-path="url(#p8ef6373f07)" style="fill: #d62728; fill-opacity: 0.18"/>
   </g>
   <g id="patch_21">
    <path d="M 185.376583 224.891514 
L 174.220129 227.218859 
L 177.218647 231.628786 
L 174.225389 232.181247 
L 178.091393 236.947035 
L 186.474788 237.691726 
L 186.710294 231.91058 
z
" clip-path="url(#p8ef6373f07)" style="fill: #d62728; fill-opacity: 0.18"/>
   </g>
   <g id="patch_22">
    <path d="M 184.182707 225.504893 
L 180.253443 225.821633 
L 175.680827 224.405377 
L 175.725757 231.725989 
L 181.261159 234.543897 
L 186.20492 237.891215 
L 190.780547 235.397345 
L 190.671472 232.476772 
z
" clip-path="url(#p8ef6373f07)" style="fill: #d62728; fill-opacity: 0.18"/>
   </g>
   <g id="patch_23">
    <path d="M 24.506611 317.264148 
L 14.595353 320.474896 
L 23.252381 328.17396 
L 26.237518 324.081223 
z
" clip-path="url(#p8ef6373f07)" style="fill: #d62728; fill-opacity: 0.18"/>
   </g>
   <g id="patch_24">
    <path d="M 10.368196 316.151502 
L 18.245501 326.695879 
L 23.651666 323.122696 
z
" clip-path="url(#p8ef6373f07)" style="fill: #d62728; fill-opacity: 0.18"/>
   </g>
   <g id="patch_25">
    <path d="M 204.272906 197.990881 
L 202.217878 192.508532 
L 192.165676 199.364025 
L 193.470775 204.87564 
L 202.91156 204.167188 
L 203.038597 200.858498 
z
" clip-path="url(#p8ef6373f07)" style="fill: #ff7f0e; fill-opacity: 0.18"/>
   </g>
   <g id="patch_26">
    <path d="M 103.084866 261.706255 
L 102.920347 257.008376 
L 91.764036 256.931859 
L 89.531725 258.990854 
L 90.701452 267.878806 
L 96.163986 266.106455 
L 98.840492 267.511071 
z
" clip-path="url(#p8ef6373f07)" style="fill: #d62728; fill-opacity: 0.18"/>
   </g>
   <g id="patch_27">
    <path d="M 29.653428 313.052011 
L 19.299918 311.26936 
L 18.15023 323.469708 
L 24.826707 318.789282 
z
" clip-path="url(#p8ef6373f07)" style="fill: #d62728; fill-opacity: 0.18"/>
   </g>
   <g id="patch_28">
    <path d="M 478.974064 169.104079 
L 474.93374 168.753604 
L 471.075448 174.399234 
z
" clip-path="url(#p8ef6373f07)" style="fill: #1f77b4; fill-opacity: 0.18"/>
   </g>
   <g id="patch_29">
    <path d="M 490.986083 536.020568 
L 489.947514 532.349157 
L 480.613263 532.003389 
L 480.576952 535.432465 
L 477.856571 540.080683 
L 480.913456 543.836958 
L 492.777998 544.458462 
z
" clip-path="url(#p8ef6373f07)" style="fill: #1f77b4; fill-opacity: 0.18"/>
   </g>
   <g id="patch_30">
    <path d="M 484.338777 213.993506 
L 475.380339 214.931386 
L 471.950672 221.190144 
L 471.660655 225.060409 
L 483.314162 224.769461 
z
" clip-path="url(#p8ef6373f07)" style="fill: #1f77b4; fill-opacity: 0.18"/>
   </g>
   <g id="patch_31">
    <path d="M 341.357964 236.154443 
L 334.699408 235.288379 
L 328.156924 244.222171 
L 336.876214 248.036416 
L 340.175322 242.0344 
z
" clip-path="url(#p8ef6373f07)" style="fill: #2ca02c; fill-opacity: 0.18"/>
   </g>
   <g id="patch_32">
    <path d="M 373.291331 221.141295 
L 374.532226 216.523201 
L 363.875808 217.41572 
L 363.631959 223.371805 
L 368.807001 229.714868 
L 375.906563 225.394261 
z
" clip-path="url(#p8ef6373f07)" style="fill: #2ca02c; fill-opacity: 0.18"/>
   </g>
   <g id="patch_33">
    <path d="M 379.899017 225.422893 
L 372.636687 226.721934 
L 366.378611 232.690364 
z
" clip-path="url(#p8ef6373f07)" style="fill: #2ca02c; fill-opacity: 0.18"/>
   </g>
   <g id="patch_34">
    <path d="M 421.315231 252.412824 
L 418.302449 254.340142 
L 414.75379 253.193588 
L 407.780372 253.630793 
L 416.328895 264.400752 
L 419.515716 262.792349 
z
" clip-path="url(#p8ef6373f07)" style="fill: #1f77b4; fill-opacity: 0.18"/>
   </g>
   <g id="patch_35">
    <path d="M 352.670273 195.254168 
L 352.177276 202.852622 
L 357.394348 203.023038 
z
" clip-path="url(#p8ef6373f07)" style="fill: #2ca02c; fill-opacity: 0.18"/>
   </g>
   <g id="patch_36">
    <path d="M 383.997093 166.165062 
L 375.466522 164.890395 
L 383.778089 174.672797 
L 385.561996 177.671707 
L 389.50244 176.169053 
z
" clip-path="url(#p8ef6373f07)" style="fill: #1f77b4; fill-opacity: 0.18"/>
   </g>
   <g id="patch_37">
    <path d="M 304.484318 179.071315 
L 298.344116 180.109743 
L 292.043916 178.266778 
L 297.618848 185.803113 
L 302.596072 186.930165 
L 302.169521 182.570627 
z
" clip-path="url(#p8ef6373f07)" style="fill: #2ca02c; fill-opacity: 0.18"/>
   </g>
   <g id="patch_38">
    <path d="M 274.644262 182.153777 
L 266.251267 187.160173 
L 266.038022 192.258369 
L 276.380429 193.934093 
z
" clip-path="url(#p8ef6373f07)" style="fill: #2ca02c; fill-opacity: 0.18"/>
   </g>
   <g id="patch_39">
    <path d="M 277.827159 188.509308 
L 272.079669 186.911702 
L 266.406021 189.079911 
L 266.518545 196.267088 
L 269.53869 195.094255 
L 270.509647 199.188699 
L 281.212688 192.722377 
z
" clip-path="url(#p8ef6373f07)" style="fill: #2ca02c; fill-opacity: 0.18"/>
   </g>
   <g id="patch_40">
    <path d="M 337.600478 212.110589 
L 331.717866 209.672426 
L 324.334178 212.219236 
L 331.499072 214.653771 
z
" clip-path="url(#p8ef6373f07)" style="fill: #2ca02c; fill-opacity: 0.18"/>
   </g>
   <g id="patch_41">
    <path d="M 339.763387 202.101587 
L 330.531863 202.450554 
L 328.478088 207.019186 
L 333.422817 209.672426 
z
" clip-path="url(#p8ef6373f07)" style="fill: #2ca02c; fill-opacity: 0.18"/>
   </g>
   <g id="patch_42">
    <path d="M 340.88829 237.365382 
L 327.386281 231.098964 
L 327.894082 239.207553 
L 331.417515 244.192983 
L 340.971215 244.101308 
z
" clip-path="url(#p8ef6373f07)" style="fill: #2ca02c; fill-opacity: 0.18"/>
   </g>
   <g id="patch_43">
    <path d="M 296.416443 201.140819 
L 294.208946 206.262524 
L 300.88781 208.155726 
z
" clip-path="url(#p8ef6373f07)" style="fill: #2ca02c; fill-opacity: 0.18"/>
   </g>
   <g id="patch_44">
    <path d="M 286.462696 253.846542 
L 278.858844 253.280272 
L 276.394777 260.325743 
L 282.126252 266.57752 
z
" clip-path="url(#p8ef6373f07)" style="fill: #1f77b4; fill-opacity: 0.18"/>
   </g>
   <g id="patch_45">
    <path d="M 287.094907 259.518703 
L 274.030243 262.91301 
L 278.331268 269.735617 
L 286.858089 271.796307 
L 284.866845 267.9637 
z
" clip-path="url(#p8ef6373f07)" style="fill: #1f77b4; fill-opacity: 0.18"/>
   </g>
   <g id="line2d_1">
    <path d="M 213.302853 178.889865 
L 214.023351 175.544416 
L 207.207373 175.195235 
L 202.233503 179.938235 
L 202.903488 185.317624 
L 203.191144 190.007642 
L 215.535497 186.795608 
L 215.515295 183.999277 
L 213.302853 178.889865 
" clip-path="url(#p8ef6373f07)" style="fill: none; stroke: #ff7f0e; stroke-width: 0.6; stroke-linecap: square"/>
   </g>
   <g id="line2d_2">
    <path d="M 210.064879 162.546881 
L 205.378258 163.26416 
L 199.896906 170.108091 
L 211.340124 171.897392 
L 213.125329 168.623436 
L 210.064879 162.546881 
" clip-path="url(#p8ef6373f07)" style="fill: none; stroke: #ff7f0e; stroke-width: 0.6; stroke-linecap: square"/>
   </g>
   <g id="line2d_3">
    <path d="M 362.885998 138.837768 
L 355.087654 139.404385 
L 355.474971 149.624079 
L 360.62719 150.543905 
L 366.543424 148.072727 
L 362.885998 138.837768 
" clip-path="url(#p8ef6373f07)" style="fill: none; stroke: #1f77b4; stroke-width: 0.6; stroke-linecap: square"/>
   </g>
   <g id="line2d_4">
    <path d="M 369.610386 134.664114 
L 359.573381 135.060357 
L 355.745663 140.366344 
L 354.823102 147.577068 
L 361.017994 145.424935 
L 364.292601 146.635918 
L 369.610386 134.664114 
" clip-path="url(#p8ef6373f07)" style="fill: none; stroke: #1f77b4; stroke-width: 0.6; stroke-linecap: square"/>
   </g>
   <g id="line2d_5">
    <path d="M 434.006904 139.537558 
L 430.404567 138.06161 
L 429.450172 151.255775 
L 441.136351 146.446448 
L 434.006904 139.537558 
" clip-path="url(#p8ef6373f07)" style="fill: none; stroke: #1f77b4; stroke-width: 0.6; stroke-linecap: square"/>
   </g>
   <g id="line2d_6">
    <path d="M 442.115273 142.016481 
L 440.592461 138.870164 
L 435.777151 139.556333 
L 430.260579 147.038231 
L 433.282196 152.2282 
L 439.813213 149.298396 
L 442.115273 142.016481 
" clip-path="url(#p8ef6373f07)" style="fill: none; stroke: #1f77b4; stroke-width: 0.6; stroke-linecap: square"/>
   </g>
   <g id="line2d_7">
    <path d="M 417.854457 150.988681 
L 411.690759 157.927558 
L 416.773345 162.131895 
L 424.576276 162.281826 
L 417.854457 150.988681 
" clip-path="url(#p8ef6373f07)" style="fill: none; stroke: #1f77b4; stroke-width: 0.6; stroke-linecap: square"/>
   </g>
   <g id="line2d_8">
    <path d="M 208.160973 267.42599 
L 201.630948 269.256243 
L 203.360579 281.941745 
L 210.170265 279.140273 
L 208.160973 267.42599 
" clip-path="url(#p8ef6373f07)" style="fill: none; stroke: #d62728; stroke-width: 0.6; stroke-linecap: square"/>
   </g>
   <g id="line2d_9">
    <path d="M 204.899671 189.374113 
L 199.530508 193.471172 
L 201.52277 195.75826 
L 200.288479 198.321056 
L 202.974267 199.335687 
L 205.150796 201.165674 
L 208.907689 203.636607 
L 214.440711 199.779929 
L 204.899671 189.374113 
" clip-path="url(#p8ef6373f07)" style="fill: none; stroke: #ff7f0e; stroke-width: 0.6; stroke-linecap: square"/>
   </g>
   <g id="line2d_10">
    <path d="M 158.376067 154.622912 
L 147.602061 155.642155 
L 150.100428 163.416547 
L 153.623015 167.041648 
L 159.892872 165.368567 
L 161.523496 161.534877 
L 158.376067 154.622912 
" clip-path="url(#p8ef6373f07)" style="fill: none; stroke: #1f77b4; stroke-width: 0.6; stroke-linecap: square"/>
   </g>
   <g id="line2d_11">
    <path d="M 136.297838 47.255892 
L 135.833446 40.899377 
L 128.805557 38.776236 
L 127.606783 51.256081 
L 132.463598 53.235556 
L 137.009435 53.466883 
L 136.297838 47.255892 
" clip-path="url(#p8ef6373f07)" style="fill: none; stroke: #1f77b4; stroke-width: 0.6; stroke-linecap: square"/>
   </g>
   <g id="line2d_12">
    <path d="M 165.680147 17.130232 
L 162.277217 25.280379 
L 166.989486 29.190064 
L 173.084532 24.616262 
L 165.680147 17.130232 
" clip-path="url(#p8ef6373f07)" style="fill: none; stroke: #1f77b4; stroke-width: 0.6; stroke-linecap: square"/>
   </g>
   <g id="line2d_13">
    <path d="M 175.117813 11.381538 
L 163.084626 13.153337 
L 164.240832 15.883058 
L 162.644318 22.174466 
L 166.140071 25.553093 
L 169.090738 25.049495 
L 176.815276 20.106082 
L 175.117813 11.381538 
" clip-path="url(#p8ef6373f07)" style="fill: none; stroke: #1f77b4; stroke-width: 0.6; stroke-linecap: square"/>
   </g>
   <g id="line2d_14">
    <path d="M 178.804781 18.096646 
L 173.064614 17.892638 
L 171.498283 14.831212 
L 163.795788 22.745999 
L 172.38355 27.562517 
L 176.286781 29.088256 
L 178.509 25.482643 
L 178.804781 18.096646 
" clip-path="url(#p8ef6373f07)" style="fill: none; stroke: #1f77b4; stroke-width: 0.6; stroke-linecap: square"/>
   </g>
   <g id="line2d_15">
    <path d="M 210.679005 188.78129 
L 213.305819 185.104282 
L 206.510966 187.581167 
L 199.687504 188.510657 
L 200.497285 193.968776 
L 211.191411 197.302702 
L 210.679005 188.78129 
" clip-path="url(#p8ef6373f07)" style="fill: none; stroke: #ff7f0e; stroke-width: 0.6; stroke-linecap: square"/>
   </g>
   <g id="line2d_16">
    <path d="M 194.698898 164.719005 
L 188.859824 161.863668 
L 187.585691 164.954846 
L 186.945461 172.994112 
L 191.107857 175.660981 
L 195.807358 176.322566 
L 199.086751 174.906076 
L 196.637226 170.952962 
L 194.698898 164.719005 
" clip-path="url(#p8ef6373f07)" style="fill: none; stroke: #ff7f0e; stroke-width: 0.6; stroke-linecap: square"/>
   </g>
   <g id="line2d_17">
    <path d="M 169.834973 130.8195 
L 160.911095 126.644378 
L 157.217694 130.749161 
L 161.237404 135.22523 
L 169.834973 130.8195 
" clip-path="url(#p8ef6373f07)" style="fill: none; stroke: #1f77b4; stroke-width: 0.6; stroke-linecap: square"/>
   </g>
   <g id="line2d_18">
    <path d="M 134.956382 134.571235 
L 130.533662 134.654587 
L 136.280071 138.868726 
L 134.956382 134.571235 
" clip-path="url(#p8ef6373f07)" style="fill: none; stroke: #1f77b4; stroke-width: 0.6; stroke-linecap: square"/>
   </g>
   <g id="line2d_19">
    <path d="M 153.03845 266.722356 
L 141.54571 272.536299 
L 150.287099 278.395153 
L 153.03845 266.722356 
" clip-path="url(#p8ef6373f07)" style="fill: none; stroke: #d62728; stroke-width: 0.6; stroke-linecap: square"/>
   </g>
   <g id="line2d_20">
    <path d="M 185.376583 224.891514 
L 174.220129 227.218859 
L 177.218647 231.628786 
L 174.225389 232.181247 
L 178.091393 236.947035 
L 186.474788 237.691726 
L 186.710294 231.91058 
L 185.376583 224.891514 
" clip-path="url(#p8ef6373f07)" style="fill: none; stroke: #d62728; stroke-width: 0.6; stroke-linecap: square"/>
   </g>
   <g id="line2d_21">
    <path d="M 184.182707 225.504893 
L 180.253443 225.821633 
L 175.680827 224.405377 
L 175.725757 231.725989 
L 181.261159 234.543897 
L 186.20492 237.891215 
L 190.780547 235.397345 
L 190.671472 232.476772 
L 184.182707 225.504893 
" clip-path="url(#p8ef6373f07)" style="fill: none; stroke: #d62728; stroke-width: 0.6; stroke-linecap: square"/>
   </g>
   <g id="line2d_22">
    <path d="M 24.506611 317.264148 
L 14.595353 320.474896 
L 23.252381 328.17396 
L 26.237518 324.081223 
L 24.506611 317.264148 
" clip-path="url(#p8ef6373f07)" style="fill: none; stroke: #d62728; stroke-width: 0.6; stroke-linecap: square"/>
   </g>
   <g id="line2d_23">
    <path d="M 10.368196 316.151502 
L 18.245501 326.695879 
L 23.651666 323.122696 
L 10.368196 316.151502 
" clip-path="url(#p8ef6373f07)" style="fill: none; stroke: #d62728; stroke-width: 0.6; stroke-linecap: square"/>
   </g>
   <g id="line2d_24">
    <path d="M 204.272906 197.990881 
L 202.217878 192.508532 
L 192.165676 199.364025 
L 193.470775 204.87564 
L 202.91156 204.167188 
L 203.038597 200.858498 
L 204.272906 197.990881 
" clip-path="url(#p8ef6373f07)" style="fill: none; stroke: #ff7f0e; stroke-width: 0.6; stroke-linecap: square"/>
   </g>
   <g id="line2d_25">
    <path d="M 103.084866 261.706255 
L 102.920347 257.008376 
L 91.764036 256.931859 
L 89.531725 258.990854 
L 90.701452 267.878806 
L 96.163986 266.106455 
L 98.840492 267.511071 
L 103.084866 261.706255 
" clip-path="url(#p8ef6373f07)" style="fill: none; stroke: #d62728; stroke-width: 0.6; stroke-linecap: square"/>
   </g>
   <g id="line2d_26">
    <path d="M 29.653428 313.052011 
L 19.299918 311.26936 
L 18.15023 323.469708 
L 24.826707 318.789282 
L 29.653428 313.052011 
" clip-path="url(#p8ef6373f07)" style="fill: none; stroke: #d62728; stroke-width: 0.6; stroke-linecap: square"/>
   </g>
   <g id="line2d_27">
    <path d="M 478.974064 169.104079 
L 474.93374 168.753604 
L 471.075448 174.399234 
L 478.974064 169.104079 
" clip-path="url(#p8ef6373f07)" style="fill: none; stroke: #1f77b4; stroke-width: 0.6; stroke-linecap: square"/>
   </g>
   <g id="line2d_28">
    <path d="M 490.986083 536.020568 
L 489.947514 532.349157 
L 480.613263 532.003389 
L 480.576952 535.432465 
L 477.856571 540.080683 
L 480.913456 543.836958 
L 492.777998 544.458462 
L 490.986083 536.020568 
" clip-path="url(#p8ef6373f07)" style="fill: none; stroke: #1f77b4; stroke-width: 0.6; stroke-linecap: square"/>
   </g>
   <g id="line2d_29">
    <path d="M 484.338777 213.993506 
L 475.380339 214.931386 
L 471.950672 221.190144 
L 471.660655 225.060409 
L 483.314162 224.769461 
L 484.338777 213.993506 
" clip-path="url(#p8ef6373f07)" style="fill: none; stroke: #1f77b4; stroke-width: 0.6; stroke-linecap: square"/>
   </g>
   <g id="line2d_30">
    <path d="M 341.357964 236.154443 
L 334.699408 235.288379 
L 328.156924 244.222171 
L 336.876214 248.036416 
L 340.175322 242.0344 
L 341.357964 236.154443 
" clip-path="url(#p8ef6373f07)" style="fill: none; stroke: #2ca02c; stroke-width: 0.6; stroke-linecap: square"/>
   </g>
   <g id="line2d_31">
    <path d="M 373.291331 221.141295 
L 374.532226 216.523201 
L 363.875808 217.41572 
L 363.631959 223.371805 
L 368.807001 229.714868 
L 375.906563 225.394261 
L 373.291331 221.141295 
" clip-path="url(#p8ef6373f07)" style="fill: none; stroke: #2ca02c; stroke-width: 0.6; stroke-linecap: square"/>
   </g>
   <g id="line2d_32">
    <path d="M 379.899017 225.422893 
L 372.636687 226.721934 
L 366.378611 232.690364 
L 379.899017 225.422893 
" clip-path="url(#p8ef6373f07)" style="fill: none; stroke: #2ca02c; stroke-width: 0.6; stroke-linecap: square"/>
   </g>
   <g id="line2d_33">
    <path d="M 421.315231 252.412824 
L 418.302449 254.340142 
L 414.75379 253.193588 
L 407.780372 253.630793 
L 416.328895 264.400752 
L 419.515716 262.792349 
L 421.315231 252.412824 
" clip-path="url(#p8ef6373f07)" style="fill: none; stroke: #1f77b4; stroke-width: 0.6; stroke-linecap: square"/>
   </g>
   <g id="line2d_34">
    <path d="M 352.670273 195.254168 
L 352.177276 202.852622 
L 357.394348 203.023038 
L 352.670273 195.254168 
" clip-path="url(#p8ef6373f07)" style="fill: none; stroke: #2ca02c; stroke-width: 0.6; stroke-linecap: square"/>
   </g>
   <g id="line2d_35">
    <path d="M 383.997093 166.165062 
L 375.466522 164.890395 
L 383.778089 174.672797 
L 385.561996 177.671707 
L 389.50244 176.169053 
L 383.997093 166.165062 
" clip-path="url(#p8ef6373f07)" style="fill: none; stroke: #1f77b4; stroke-width: 0.6; stroke-linecap: square"/>
   </g>
   <g id="line2d_36">
    <path d="M 304.484318 179.071315 
L 298.344116 180.109743 
L 292.043916 178.266778 
L 297.618848 185.803113 
L 302.596072 186.930165 
L 302.169521 182.570627 
L 304.484318 179.071315 
" clip-path="url(#p8ef6373f07)" style="fill: none; stroke: #2ca02c; stroke-width: 0.6; stroke-linecap: square"/>
   </g>
   <g id="line2d_37">
    <path d="M 274.644262 182.153777 
L 266.251267 187.160173 
L 266.038022 192.258369 
L 276.380429 193.934093 
L 274.644262 182.153777 
" clip-path="url(#p8ef6373f07)" style="fill: none; stroke: #2ca02c; stroke-width: 0.6; stroke-linecap: square"/>
   </g>
   <g id="line2d_38">
    <path d="M 277.827159 188.509308 
L 272.079669 186.911702 
L 266.406021 189.079911 
L 266.518545 196.267088 
L 269.53869 195.094255 
L 270.509647 199.188699 
L 281.212688 192.722377 
L 277.827159 188.509308 
" clip-path="url(#p8ef6373f07)" style="fill: none; stroke: #2ca02c; stroke-width: 0.6; stroke-linecap: square"/>
   </g>
   <g id="line2d_39">
    <path d="M 337.600478 212.110589 
L 331.717866 209.672426 
L 324.334178 212.219236 
L 331.499072 214.653771 
L 337.600478 212.110589 
" clip-path="url(#p8ef6373f07)" style="fill: none; stroke: #2ca02c; stroke-width: 0.6; stroke-linecap: square"/>
   </g>
   <g id="line2d_40">
    <path d="M 339.763387 202.101587 
L 330.531863 202.450554 
L 328.478088 207.019186 
L 333.422817 209.672426 
L 339.763387 202.101587 
" clip-path="url(#p8ef6373f07)" style="fill: none; stroke: #2ca02c; stroke-width: 0.6; stroke-linecap: square"/>
   </g>
   <g id="line2d_41">
    <path d="M 340.88829 237.365382 
L 327.386281 231.098964 
L 327.894082 239.207553 
L 331.417515 244.192983 
L 340.971215 244.101308 
L 340.88829 237.365382 
" clip-path="url(#p8ef6373f07)" style="fill: none; stroke: #2ca02c; stroke-width: 0.6; stroke-linecap: square"/>
   </g>
   <g id="line2d_42">
    <path d="M 296.416443 201.140819 
L 294.208946 206.262524 
L 300.88781 208.155726 
L 296.416443 201.140819 
" clip-path="url(#p8ef6373f07)" style="fill: none; stroke: #2ca02c; stroke-width: 0.6; stroke-linecap: square"/>
   </g>
   <g id="line2d_43">
    <path d="M 286.462696 253.846542 
L 278.858844 253.280272 
L 276.394777 260.325743 
L 282.126252 266.57752 
L 286.462696 253.846542 
" clip-path="url(#p8ef6373f07)" style="fill: none; stroke: #1f77b4; stroke-width: 0.6; stroke-linecap: square"/>
   </g>
   <g id="line2d_44">
    <path d="M 287.094907 259.518703 
L 274.030243 262.91301 
L 278.331268 269.735617 
L 286.858089 271.796307 
L 284.866845 267.9637 
L 287.094907 259.518703 
" clip-path="url(#p8ef6373f07)" style="fill: none; stroke: #1f77b4; stroke-width: 0.6; stroke-linecap: square"/>
   </g>
   <g id="line2d_45">
    <path d="M 198.731697 199.44272 
L 282.126252 266.57752 
L 285.845979 271.551709 
L 480.613263 532.003389 
L 419.515716 262.792349 
L 471.950672 221.190144 
L 471.075448 174.399234 
L 433.282196 152.2282 
L 429.450172 151.255775 
L 413.187986 156.242032 
L 381.86435 165.84638 
L 355.412482 147.975259 
L 354.823102 147.577068 
L 172.38355 27.562517 
L 167.315556 25.35247 
L 164.97789 27.521079 
L 137.009435 53.466883 
L 134.956382 134.571235 
L 161.237404 135.22523 
L 161.523496 161.534877 
L 198.731697 199.44272 
" clip-path="url(#p8ef6373f07)" style="fill: none; stroke: #1f77b4; stroke-width: 0.6; stroke-linecap: square"/>
   </g>
   <g id="line2d_46">
    <path d="M 198.731697 199.44272 
L 198.798748 194.809029 
L 199.086751 174.906076 
L 201.152521 170.304423 
L 202.233503 179.938235 
L 200.720259 188.369975 
L 199.847584 193.229221 
L 198.731697 199.44272 
" clip-path="url(#p8ef6373f07)" style="fill: none; stroke: #ff7f0e; stroke-width: 0.6; stroke-linecap: square"/>
   </g>
   <g id="line2d_47">
    <path d="M 198.731697 199.44272 
L 266.440382 191.274658 
L 275.822339 190.147315 
L 302.596072 186.930165 
L 339.763387 202.101587 
L 352.177276 202.852622 
L 363.631959 223.371805 
L 366.378611 232.690364 
L 339.468774 236.70657 
L 338.932549 235.838974 
L 324.334178 212.219236 
L 300.88781 208.155726 
L 198.731697 199.44272 
" clip-path="url(#p8ef6373f07)" style="fill: none; stroke: #2ca02c; stroke-width: 0.6; stroke-linecap: square"/>
   </g>
   <g id="line2d_48">
    <path d="M 198.731697 199.44272 
L 176.483539 224.653997 
L 174.220129 227.218859 
L 98.840492 267.511071 
L 26.543706 316.748375 
L 23.651666 323.122696 
L 25.801356 322.363427 
L 150.287099 278.395153 
L 201.630948 269.256243 
L 198.731697 199.44272 
" clip-path="url(#p8ef6373f07)" style="fill: none; stroke: #d62728; stroke-width: 0.6; stroke-linecap: square"/>
   </g>
   <g id="PathCollection_1">
    <defs>
     <path id="C0_0_fdf5dff24e" d="M 0 1.322876 
C 0.350831 1.322876 0.68734 1.183489 0.935414 0.935414 
C 1.183489 0.68734 1.322876 0.350831 1.322876 -0 
C 1.322876 -0.350831 1.183489 -0.68734 0.935414 -0.935414 
C 0.68734 -1.183489 0.350831 -1.322876 0 -1.322876 
C -0.350831 -1.322876 -0.68734 -1.183489 -0.935414 -0.935414 
C -1.183489 -0.68734 -1.322876 -0.350831 -1.322876 0 
C -1.322876 0.350831 -1.183489 0.68734 -0.935414 0.935414 
C -0.68734 1.183489 -0.350831 1.322876 0 1.322876 
z
"/>
    </defs>
    <g clip-path="url(#p8ef6373f07)">
     <use xlink:href="#C0_0_fdf5dff24e" x="282.126252" y="266.57752" style="fill: #1f77b4"/>
    </g>
    <g clip-path="url(#p8ef6373f07)">
     <use xlink:href="#C0_0_fdf5dff24e" x="285.845979" y="271.551709" style="fill: #1f77b4"/>
    </g>
    <g clip-path="url(#p8ef6373f07)">
     <use xlink:href="#C0_0_fdf5dff24e" x="480.613263" y="532.003389" style="fill: #1f77b4"/>
    </g>
    <g clip-path="url(#p8ef6373f07)">
     <use xlink:href="#C0_0_fdf5dff24e" x="419.515716" y="262.792349" style="fill: #1f77b4"/>
    </g>
    <g clip-path="url(#p8ef6373f07)">
     <use xlink:href="#C0_0_fdf5dff24e" x="471.950672" y="221.190144" style="fill: #1f77b4"/>
    </g>
    <g clip-path="url(#p8ef6373f07)">
     <use xlink:href="#C0_0_fdf5dff24e" x="471.075448" y="174.399234" style="fill: #1f77b4"/>
    </g>
    <g clip-path="url(#p8ef6373f07)">
     <use xlink:href="#C0_0_fdf5dff24e" x="433.282196" y="152.2282" style="fill: #1f77b4"/>
    </g>
    <g clip-path="url(#p8ef6373f07)">
     <use xlink:href="#C0_0_fdf5dff24e" x="429.450172" y="151.255775" style="fill: #1f77b4"/>
    </g>
    <g clip-path="url(#p8ef6373f07)">
     <use xlink:href="#C0_0_fdf5dff24e" x="413.187986" y="156.242032" style="fill: #1f77b4"/>
    </g>
    <g clip-path="url(#p8ef6373f07)">
     <use xlink:href="#C0_0_fdf5dff24e" x="381.86435" y="165.84638" style="fill: #1f77b4"/>
    </g>
    <g clip-path="url(#p8ef6373f07)">
     <use xlink:href="#C0_0_fdf5dff24e" x="355.412482" y="147.975259" style="fill: #1f77b4"/>
    </g>
    <g clip-path="url(#p8ef6373f07)">
     <use xlink:href="#C0_0_fdf5dff24e" x="354.823102" y="147.577068" style="fill: #1f77b4"/>
    </g>
    <g clip-path="url(#p8ef6373f07)">
     <use xlink:href="#C0_0_fdf5dff24e" x="172.38355" y="27.562517" style="fill: #1f77b4"/>
    </g>
    <g clip-path="url(#p8ef6373f07)">
     <use xlink:href="#C0_0_fdf5dff24e" x="167.315556" y="25.35247" style="fill: #1f77b4"/>
    </g>
    <g clip-path="url(#p8ef6373f07)">
     <use xlink:href="#C0_0_fdf5dff24e" x="164.97789" y="27.521079" style="fill: #1f77b4"/>
    </g>
    <g clip-path="url(#p8ef6373f07)">
     <use xlink:href="#C0_0_fdf5dff24e" x="137.009435" y="53.466883" style="fill: #1f77b4"/>
    </g>
    <g clip-path="url(#p8ef6373f07)">
     <use xlink:href="#C0_0_fdf5dff24e" x="134.956382" y="134.571235" style="fill: #1f77b4"/>
    </g>
    <g clip-path="url(#p8ef6373f07)">
     <use xlink:href="#C0_0_fdf5dff24e" x="161.237404" y="135.22523" style="fill: #1f77b4"/>
    </g>
    <g clip-path="url(#p8ef6373f07)">
     <use xlink:href="#C0_0_fdf5dff24e" x="161.523496" y="161.534877" style="fill: #1f77b4"/>
    </g>
   </g>
   <g id="PathCollection_2">
    <defs>
     <path id="C1_0_c1530bb81e" d="M 0 1.322876 
C 0.350831 1.322876 0.68734 1.183489 0.935414 0.935414 
C 1.183489 0.68734 1.322876 0.350831 1.322876 -0 
C 1.322876 -0.350831 1.183489 -0.68734 0.935414 -0.935414 
C 0.68734 -1.183489 0.350831 -1.322876 0 -1.322876 
C -0.350831 -1.322876 -0.68734 -1.183489 -0.935414 -0.935414 
C -1.183489 -0.68734 -1.322876 -0.350831 -1.322876 0 
C -1.322876 0.350831 -1.183489 0.68734 -0.935414 0.935414 
C -0.68734 1.183489 -0.350831 1.322876 0 1.322876 
z
"/>
    </defs>
    <g clip-path="url(#p8ef6373f07)">
     <use xlink:href="#C1_0_c1530bb81e" x="198.798748" y="194.809029" style="fill: #ff7f0e"/>
    </g>
    <g clip-path="url(#p8ef6373f07)">
     <use xlink:href="#C1_0_c1530bb81e" x="199.086751" y="174.906076" style="fill: #ff7f0e"/>
    </g>
    <g clip-path="url(#p8ef6373f07)">
     <use xlink:href="#C1_0_c1530bb81e" x="201.152521" y="170.304423" style="fill: #ff7f0e"/>
    </g>
    <g clip-path="url(#p8ef6373f07)">
     <use xlink:href="#C1_0_c1530bb81e" x="202.233503" y="179.938235" style="fill: #ff7f0e"/>
    </g>
    <g clip-path="url(#p8ef6373f07)">
     <use xlink:href="#C1_0_c1530bb81e" x="200.720259" y="188.369975" style="fill: #ff7f0e"/>
    </g>
    <g clip-path="url(#p8ef6373f07)">
     <use xlink:href="#C1_0_c1530bb81e" x="199.847584" y="193.229221" style="fill: #ff7f0e"/>
    </g>
   </g>
   <g id="PathCollection_3">
    <defs>
     <path id="C2_0_68b01c1738" d="M 0 1.322876 
C 0.350831 1.322876 0.68734 1.183489 0.935414 0.935414 
C 1.183489 0.68734 1.322876 0.350831 1.322876 -0 
C 1.322876 -0.350831 1.183489 -0.68734 0.935414 -0.935414 
C 0.68734 -1.183489 0.350831 -1.322876 0 -1.322876 
C -0.350831 -1.322876 -0.68734 -1.183489 -0.935414 -0.935414 
C -1.183489 -0.68734 -1.322876 -0.350831 -1.322876 0 
C -1.322876 0.350831 -1.183489 0.68734 -0.935414 0.935414 
C -0.68734 1.183489 -0.350831 1.322876 0 1.322876 
z
"/>
    </defs>
    <g clip-path="url(#p8ef6373f07)">
     <use xlink:href="#C2_0_68b01c1738" x="266.440382" y="191.274658" style="fill: #2ca02c"/>
    </g>
    <g clip-path="url(#p8ef6373f07)">
     <use xlink:href="#C2_0_68b01c1738" x="275.822339" y="190.147315" style="fill: #2ca02c"/>
    </g>
    <g clip-path="url(#p8ef6373f07)">
     <use xlink:href="#C2_0_68b01c1738" x="302.596072" y="186.930165" style="fill: #2ca02c"/>
    </g>
    <g clip-path="url(#p8ef6373f07)">
     <use xlink:href="#C2_0_68b01c1738" x="339.763387" y="202.101587" style="fill: #2ca02c"/>
    </g>
    <g clip-path="url(#p8ef6373f07)">
     <use xlink:href="#C2_0_68b01c1738" x="352.177276" y="202.852622" style="fill: #2ca02c"/>
    </g>
    <g clip-path="url(#p8ef6373f07)">
     <use xlink:href="#C2_0_68b01c1738" x="363.631959" y="223.371805" style="fill: #2ca02c"/>
    </g>
    <g clip-path="url(#p8ef6373f07)">
     <use xlink:href="#C2_0_68b01c1738" x="366.378611" y="232.690364" style="fill: #2ca02c"/>
    </g>
    <g clip-path="url(#p8ef6373f07)">
     <use xlink:href="#C2_0_68b01c1738" x="339.468774" y="236.70657" style="fill: #2ca02c"/>
    </g>
    <g clip-path="url(#p8ef6373f07)">
     <use xlink:href="#C2_0_68b01c1738" x="338.932549" y="235.838974" style="fill: #2ca02c"/>
    </g>
    <g clip-path="url(#p8ef6373f07)">
     <use xlink:href="#C2_0_68b01c1738" x="324.334178" y="212.219236" style="fill: #2ca02c"/>
    </g>
    <g clip-path="url(#p8ef6373f07)">
     <use xlink:href="#C2_0_68b01c1738" x="300.88781" y="208.155726" style="fill: #2ca02c"/>
    </g>
   </g>
   <g id="PathCollection_4">
    <defs>
     <path id="C3_0_d8bb8d934c" d="M 0 1.322876 
C 0.350831 1.322876 0.68734 1.183489 0.935414 0.935414 
C 1.183489 0.68734 1.322876 0.350831 1.322876 -0 
C 1.322876 -0.350831 1.183489 -0.68734 0.935414 -0.935414 
C 0.68734 -1.183489 0.350831 -1.322876 0 -1.322876 
C -0.350831 -1.322876 -0.68734 -1.183489 -0.935414 -0.935414 
C -1.183489 -0.68734 -1.322876 -0.350831 -1.322876 0 
C -1.322876 0.350831 -1.183489 0.68734 -0.935414 0.935414 
C -0.68734 1.183489 -0.350831 1.322876 0 1.322876 
z
"/>
    </defs>
    <g clip-path="url(#p8ef6373f07)">
     <use xlink:href="#C3_0_d8bb8d934c" x="176.483539" y="224.653997" style="fill: #d62728"/>
    </g>
    <g clip-path="url(#p8ef6373f07)">
     <use xlink:href="#C3_0_d8bb8d934c" x="174.220129" y="227.218859" style="fill: #d62728"/>
    </g>
    <g clip-path="url(#p8ef6373f07)">
     <use xlink:href="#C3_0_d8bb8d934c" x="98.840492" y="267.511071" style="fill: #d62728"/>
    </g>
    <g clip-path="url(#p8ef6373f07)">
     <use xlink:href="#C3_0_d8bb8d934c" x="26.543706" y="316.748375" style="fill: #d62728"/>
    </g>
    <g clip-path="url(#p8ef6373f07)">
     <use xlink:href="#C3_0_d8bb8d934c" x="23.651666" y="323.122696" style="fill: #d62728"/>
    </g>
    <g clip-path="url(#p8ef6373f07)">
     <use xlink:href="#C3_0_d8bb8d934c" x="25.801356" y="322.363427" style="fill: #d62728"/>
    </g>
    <g clip-path="url(#p8ef6373f07)">
     <use xlink:href="#C3_0_d8bb8d934c" x="150.287099" y="278.395153" style="fill: #d62728"/>
    </g>
    <g clip-path="url(#p8ef6373f07)">
     <use xlink:href="#C3_0_d8bb8d934c" x="201.630948" y="269.256243" style="fill: #d62728"/>
    </g>
   </g>
   <g id="PathCollection_5">
    <defs>
     <path id="m2d02dc9f9b" d="M 0 1.5 
C 0.397805 1.5 0.77937 1.341951 1.06066 1.06066 
C 1.341951 0.77937 1.5 0.397805 1.5 0 
C 1.5 -0.397805 1.341951 -0.77937 1.06066 -1.06066 
C 0.77937 -1.341951 0.397805 -1.5 0 -1.5 
C -0.397805 -1.5 -0.77937 -1.341951 -1.06066 -1.06066 
C -1.341951 -0.77937 -1.5 -0.397805 -1.5 0 
C -1.5 0.397805 -1.341951 0.77937 -1.06066 1.06066 
C -0.77937 1.341951 -0.397805 1.5 0 1.5 
z
" style="stroke: #000000"/>
    </defs>
    <g clip-path="url(#p8ef6373f07)">
     <use xlink:href="#m2d02dc9f9b" x="198.731697" y="199.44272" style="stroke: #000000"/>
    </g>
   </g>
  </g>
 </g>
 <defs>
  <clipPath id="p8ef6373f07">
   <rect x="0.72" y="0.72" width="501.706194" height="554.4"/>
  </clipPath>
 </defs>
</svg>
