<?xml version="1.0" encoding="utf-8" standalone="no"?>
<!DOCTYPE svg PUBLIC "-//W3C//DTD SVG 1.1//EN"
  "http://www.w3.org/Graphics/SVG/1.1/DTD/svg11.dtd">
<svg xmlns:xlink="http://www.w3.org/1999/xlink" width="300.497264pt" height="555.84pt" viewBox="0 0 300.497264 555.84" xmlns="http://www.w3.org/2000/svg" version="1.1">
 <metadata>
  <rdf:RDF xmlns:dc="http://purl.org/dc/elements/1.1/" xmlns:cc="http://creativecommons.org/ns#" xmlns:rdf="http://www.w3.org/1999/02/22-rdf-syntax-ns#">
   <cc:Work>
    <dc:type rdf:resource="http://purl.org/dc/dcmitype/StillImage"/>
    <dc:date>2026-06-11T11:53:56.959409</dc:date>
    <dc:format>image/svg+xml</dc:format>
    <dc:creator>
     <cc:Agent>
      <dc:title>Matplotlib v3.6.3, https://matplotlib.org/</dc:title>
     </cc:Agent>
    </dc:creator>
   </cc:Work>
  </rdf:RDF>
 </metadata>
 <defs>
  <style type="text/css">*{stroke-linejoin: round; stroke-linecap: butt}</style>
 </defs>
 <g id="figure_1">
  <g id="patch_1">
   <path d="M 0 555.84 
L 300.497264 555.84 
L 300.497264 0 
L 0 0 
z
" style="fill: #ffffff"/>
  </g>
  <g id="axes_1">
   <g id="patch_2">
    <path d="M 95.174869 339.311377 
L 91.454882 340.258374 
L 88.845997 337.59552 
L 90.02543 342.67283 
L 90.350052 346.926117 
L 92.903016 349.301802 
L 98.838996 349.101498 
L 99.145409 346.006209 
z
" clip-path="url(#p1aef5814c9)" style="fill: #2ca02c; fill-opacity: 0.18"/>
   </g>
   <g id="patch_3">
    <path d="M 66.857425 333.443842 
L 69.268153 327.745881 
L 65.443426 329.260993 
L 63.056694 329.425081 
L 59.25466 335.238946 
L 63.344448 338.60416 
L 65.448692 337.181325 
L 69.000716 338.705555 
z
" clip-path="url(#p1aef5814c9)" style="fill: #2ca02c; fill-opacity: 0.18"/>
   </g>
   <g id="patch_4">
    <path d="M 211.944339 462.425475 
L 207.327697 466.727993 
L 211.903135 467.904063 
z
" clip-path="url(#p1aef5814c9)" style="fill: #2ca02c; fill-opacity: 0.18"/>
   </g>
   <g id="patch_5">
    <path d="M 242.23583 493.97765 
L 232.564076 495.279215 
L 234.043827 503.280667 
z
" clip-path="url(#p1aef5814c9)" style="fill: #2ca02c; fill-opacity: 0.18"/>
   </g>
   <g id="patch_6">
    <path d="M 207.327697 456.456305 
L 204.51042 460.762632 
L 208.076932 459.850811 
z
" clip-path="url(#p1aef5814c9)" style="fill: #2ca02c; fill-opacity: 0.18"/>
   </g>
   <g id="patch_7">
    <path d="M 130.420452 402.993791 
L 126.046601 400.757963 
L 123.680636 401.44154 
L 119.987711 405.582638 
L 119.969587 408.845354 
L 122.616671 408.334706 
z
" clip-path="url(#p1aef5814c9)" style="fill: #2ca02c; fill-opacity: 0.18"/>
   </g>
   <g id="patch_8">
    <path d="M 243.68144 507.502847 
L 240.11672 502.409008 
L 236.303521 503.025087 
L 234.496331 501.946071 
L 234.026163 509.092497 
L 236.978493 513.043091 
L 241.484402 513.612887 
L 243.757267 510.72982 
z
" clip-path="url(#p1aef5814c9)" style="fill: #2ca02c; fill-opacity: 0.18"/>
   </g>
   <g id="patch_9">
    <path d="M 227.907171 493.527246 
L 227.871074 497.543058 
L 231.122725 497.052291 
z
" clip-path="url(#p1aef5814c9)" style="fill: #2ca02c; fill-opacity: 0.18"/>
   </g>
   <g id="patch_10">
    <path d="M 293.116673 534.518267 
L 291.107863 535.080344 
L 288.716819 535.385178 
L 284.857856 533.746217 
L 284.572845 538.743572 
L 283.739292 542.23808 
L 291.947234 542.278571 
L 294.026163 544.458462 
z
" clip-path="url(#p1aef5814c9)" style="fill: #2ca02c; fill-opacity: 0.18"/>
   </g>
   <g id="patch_11">
    <path d="M 147.384681 450.677428 
L 141.00263 450.79425 
L 140.342523 456.101847 
L 148.711464 462.246982 
z
" clip-path="url(#p1aef5814c9)" style="fill: #2ca02c; fill-opacity: 0.18"/>
   </g>
   <g id="patch_12">
    <path d="M 109.816862 330.614343 
L 103.771998 328.726121 
L 101.309777 332.027036 
L 101.918964 338.787254 
L 108.877725 336.826638 
z
" clip-path="url(#p1aef5814c9)" style="fill: #d62728; fill-opacity: 0.18"/>
   </g>
   <g id="patch_13">
    <path d="M 73.746583 368.921961 
L 73.795749 374.282798 
L 77.015072 374.738902 
z
" clip-path="url(#p1aef5814c9)" style="fill: #2ca02c; fill-opacity: 0.18"/>
   </g>
   <g id="patch_14">
    <path d="M 78.819621 361.715725 
L 68.581603 358.03868 
L 68.734181 361.031616 
L 68.374022 363.429241 
L 69.466599 369.845679 
L 73.125635 368.764034 
L 78.485796 367.484123 
z
" clip-path="url(#p1aef5814c9)" style="fill: #2ca02c; fill-opacity: 0.18"/>
   </g>
   <g id="patch_15">
    <path d="M 104.07534 298.213338 
L 101.056852 297.266296 
L 100.853962 308.187688 
L 109.490843 306.965317 
L 107.98637 304.659788 
z
" clip-path="url(#p1aef5814c9)" style="fill: #d62728; fill-opacity: 0.18"/>
   </g>
   <g id="patch_16">
    <path d="M 79.386358 327.908408 
L 73.548535 329.69816 
L 72.059849 327.23101 
L 68.146067 330.87827 
L 72.860958 338.675412 
L 75.017605 336.414071 
L 78.578193 338.634112 
L 78.42063 335.062985 
z
" clip-path="url(#p1aef5814c9)" style="fill: #2ca02c; fill-opacity: 0.18"/>
   </g>
   <g id="patch_17">
    <path d="M 66.830351 371.526579 
L 60.378566 374.486505 
L 65.716174 378.611072 
L 68.951936 380.004138 
z
" clip-path="url(#p1aef5814c9)" style="fill: #2ca02c; fill-opacity: 0.18"/>
   </g>
   <g id="patch_18">
    <path d="M 67.173231 360.000119 
L 58.378023 358.420548 
L 59.647672 365.960947 
L 59.686187 369.523017 
L 67.401559 367.512689 
z
" clip-path="url(#p1aef5814c9)" style="fill: #2ca02c; fill-opacity: 0.18"/>
   </g>
   <g id="patch_19">
    <path d="M 129.304612 340.243862 
L 125.128627 339.198208 
L 120.012332 339.964694 
L 121.911977 342.025895 
L 119.990545 344.52801 
L 121.984093 347.365497 
L 129.206684 346.86009 
L 130.420273 344.381224 
z
" clip-path="url(#p1aef5814c9)" style="fill: #d62728; fill-opacity: 0.18"/>
   </g>
   <g id="patch_20">
    <path d="M 79.401289 319.812872 
L 77.38758 318.330899 
L 73.747259 318.259911 
L 68.905685 318.236407 
L 68.493045 322.784916 
L 70.590719 323.307109 
L 69.450265 326.05447 
L 78.982341 321.896569 
z
" clip-path="url(#p1aef5814c9)" style="fill: #d62728; fill-opacity: 0.18"/>
   </g>
   <g id="patch_21">
    <path d="M 249.327642 216.143868 
L 245.776972 215.973083 
L 243.076147 215.718714 
L 244.642104 221.265236 
L 243.619921 225.018563 
L 250.635257 224.421201 
L 252.917916 225.671705 
L 253.227269 221.386359 
z
" clip-path="url(#p1aef5814c9)" style="fill: #ff7f0e; fill-opacity: 0.18"/>
   </g>
   <g id="patch_22">
    <path d="M 274.363191 187.748474 
L 273.970357 184.864445 
L 271.81246 184.026027 
L 268.128988 185.984533 
L 264.063875 189.784747 
L 265.41634 191.574572 
L 274.72933 193.335249 
L 272.628957 189.951742 
z
" clip-path="url(#p1aef5814c9)" style="fill: #ff7f0e; fill-opacity: 0.18"/>
   </g>
   <g id="patch_23">
    <path d="M 273.468258 176.008135 
L 270.508603 174.633272 
L 265.478324 176.136343 
L 265.902014 178.729281 
L 266.737141 184.937846 
L 273.282048 183.819789 
z
" clip-path="url(#p1aef5814c9)" style="fill: #ff7f0e; fill-opacity: 0.18"/>
   </g>
   <g id="patch_24">
    <path d="M 242.186213 198.325009 
L 242.029293 195.994676 
L 236.755276 195.850542 
L 232.963726 194.216285 
L 232.837908 199.508949 
L 240.534272 203.575593 
L 243.352644 204.980903 
z
" clip-path="url(#p1aef5814c9)" style="fill: #ff7f0e; fill-opacity: 0.18"/>
   </g>
   <g id="patch_25">
    <path d="M 230.575692 186.171445 
L 227.72224 183.74013 
L 224.517166 184.862227 
L 223.90524 187.980638 
L 221.8912 192.05759 
L 225.600247 194.187724 
L 233.033292 188.205409 
z
" clip-path="url(#p1aef5814c9)" style="fill: #ff7f0e; fill-opacity: 0.18"/>
   </g>
   <g id="patch_26">
    <path d="M 232.397898 177.706894 
L 233.35987 173.435374 
L 231.064932 173.645743 
L 223.899674 174.82031 
L 222.209833 178.224118 
L 222.298445 183.5389 
L 232.834931 185.060238 
z
" clip-path="url(#p1aef5814c9)" style="fill: #ff7f0e; fill-opacity: 0.18"/>
   </g>
   <g id="patch_27">
    <path d="M 244.156323 187.050221 
L 242.260959 185.358339 
L 235.043519 183.66955 
L 236.261829 186.223336 
L 233.338405 190.644423 
L 234.430404 194.709754 
L 243.778222 189.674133 
z
" clip-path="url(#p1aef5814c9)" style="fill: #ff7f0e; fill-opacity: 0.18"/>
   </g>
   <g id="patch_28">
    <path d="M 283.20203 135.650061 
L 282.253393 132.764733 
L 273.703269 134.325331 
L 275.95465 142.962083 
L 283.072009 139.253011 
z
" clip-path="url(#p1aef5814c9)" style="fill: #ff7f0e; fill-opacity: 0.18"/>
   </g>
   <g id="patch_29">
    <path d="M 273.720804 153.704048 
L 271.236526 154.069356 
L 266.544066 154.994203 
L 264.55722 160.044534 
L 273.057503 164.493813 
L 272.514859 160.303702 
z
" clip-path="url(#p1aef5814c9)" style="fill: #ff7f0e; fill-opacity: 0.18"/>
   </g>
   <g id="patch_30">
    <path d="M 246.379484 204.118348 
L 244.866842 206.517185 
L 245.070274 210.607131 
L 244.620396 214.227507 
L 252.957574 211.804684 
z
" clip-path="url(#p1aef5814c9)" style="fill: #ff7f0e; fill-opacity: 0.18"/>
   </g>
   <g id="patch_31">
    <path d="M 263.826245 196.457381 
L 261.781508 198.181992 
L 257.326023 193.872959 
L 252.987275 204.323329 
L 259.312606 205.288771 
L 261.979138 203.340051 
z
" clip-path="url(#p1aef5814c9)" style="fill: #ff7f0e; fill-opacity: 0.18"/>
   </g>
   <g id="patch_32">
    <path d="M 157.128443 267.363627 
L 151.02536 267.629464 
L 155.969255 271.565915 
z
" clip-path="url(#p1aef5814c9)" style="fill: #1f77b4; fill-opacity: 0.18"/>
   </g>
   <g id="patch_33">
    <path d="M 155.170674 255.592812 
L 150.03279 257.599032 
L 151.248006 263.940649 
L 155.969255 261.294227 
z
" clip-path="url(#p1aef5814c9)" style="fill: #1f77b4; fill-opacity: 0.18"/>
   </g>
   <g id="patch_34">
    <path d="M 135.425879 302.38098 
L 131.60265 302.820196 
L 130.200403 306.035116 
z
" clip-path="url(#p1aef5814c9)" style="fill: #2ca02c; fill-opacity: 0.18"/>
   </g>
   <g id="patch_35">
    <path d="M 151.623827 255.71934 
L 142.305017 255.344871 
L 140.004874 258.669288 
L 142.012055 261.376991 
L 139.771578 262.325131 
L 140.322235 264.432141 
L 139.86382 266.899185 
L 150.245598 265.066146 
z
" clip-path="url(#p1aef5814c9)" style="fill: #1f77b4; fill-opacity: 0.18"/>
   </g>
   <g id="patch_36">
    <path d="M 150.574638 306.698287 
L 141.778213 313.517368 
L 149.071146 311.998013 
z
" clip-path="url(#p1aef5814c9)" style="fill: #d62728; fill-opacity: 0.18"/>
   </g>
   <g id="patch_37">
    <path d="M 150.397179 301.797452 
L 143.56861 297.27736 
L 141.887375 300.671549 
L 141.60093 305.662929 
L 148.875115 305.856835 
z
" clip-path="url(#p1aef5814c9)" style="fill: #d62728; fill-opacity: 0.18"/>
   </g>
   <g id="patch_38">
    <path d="M 11.316761 154.132572 
L 7.711581 154.064911 
L 8.269358 157.032408 
L 8.594754 160.329445 
L 8.418119 163.902399 
L 10.54174 162.252554 
L 16.619688 162.576315 
L 18.183246 160.222569 
z
" clip-path="url(#p1aef5814c9)" style="fill: #1f77b4; fill-opacity: 0.18"/>
   </g>
   <g id="patch_39">
    <path d="M 13.43238 144.11915 
L 7.1534 147.596374 
L 6.471101 152.236534 
L 10.459242 152.400709 
L 14.669713 152.390961 
z
" clip-path="url(#p1aef5814c9)" style="fill: #1f77b4; fill-opacity: 0.18"/>
   </g>
   <g id="patch_40">
    <path d="M 99.185256 174.882631 
L 88.432508 180.012911 
L 94.339125 179.12072 
z
" clip-path="url(#p1aef5814c9)" style="fill: #1f77b4; fill-opacity: 0.18"/>
   </g>
   <g id="patch_41">
    <path d="M 17.738845 125.361641 
L 12.165619 127.762279 
L 17.029936 131.251612 
z
" clip-path="url(#p1aef5814c9)" style="fill: #1f77b4; fill-opacity: 0.18"/>
   </g>
   <g id="patch_42">
    <path d="M 159.724266 200.700171 
L 159.802651 197.100038 
L 154.455552 195.792366 
L 151.956607 201.594496 
L 152.525148 204.446955 
L 158.035802 205.05141 
z
" clip-path="url(#p1aef5814c9)" style="fill: #1f77b4; fill-opacity: 0.18"/>
   </g>
   <g id="patch_43">
    <path d="M 243.327951 64.584265 
L 235.306656 61.457997 
L 232.422814 63.552829 
L 234.640095 66.749224 
L 232.859162 70.357132 
L 236.736217 69.267214 
L 242.238881 71.559132 
z
" clip-path="url(#p1aef5814c9)" style="fill: #ff7f0e; fill-opacity: 0.18"/>
   </g>
   <g id="patch_44">
    <path d="M 234.497744 50.359249 
L 238.142762 55.86046 
L 243.484077 57.940083 
z
" clip-path="url(#p1aef5814c9)" style="fill: #ff7f0e; fill-opacity: 0.18"/>
   </g>
   <g id="patch_45">
    <path d="M 231.668502 65.395208 
L 233.855917 64.320426 
L 229.12061 62.162985 
L 224.772289 64.755188 
L 222.153056 67.259361 
L 231.310422 69.011207 
L 233.227319 70.40264 
z
" clip-path="url(#p1aef5814c9)" style="fill: #ff7f0e; fill-opacity: 0.18"/>
   </g>
   <g id="patch_46">
    <path d="M 213.213091 29.528471 
L 206.645291 29.699186 
L 202.360808 32.114986 
L 202.595863 35.06117 
L 201.667498 41.016832 
L 209.590086 39.755495 
L 212.327015 35.887879 
z
" clip-path="url(#p1aef5814c9)" style="fill: #ff7f0e; fill-opacity: 0.18"/>
   </g>
   <g id="patch_47">
    <path d="M 232.484064 52.662138 
L 230.4231 49.879378 
L 227.871074 55.86046 
L 231.214361 58.084216 
L 232.514371 61.585328 
z
" clip-path="url(#p1aef5814c9)" style="fill: #ff7f0e; fill-opacity: 0.18"/>
   </g>
   <g id="patch_48">
    <path d="M 202.191074 73.545857 
L 196.763028 70.705154 
L 192.40575 79.200317 
L 202.255139 81.613335 
L 202.421729 78.118267 
z
" clip-path="url(#p1aef5814c9)" style="fill: #ff7f0e; fill-opacity: 0.18"/>
   </g>
   <g id="patch_49">
    <path d="M 200.632612 64.362723 
L 200.117174 60.946662 
L 191.784164 65.63879 
L 191.546453 71.18141 
L 199.598152 69.556921 
L 202.557942 68.656349 
z
" clip-path="url(#p1aef5814c9)" style="fill: #ff7f0e; fill-opacity: 0.18"/>
   </g>
   <g id="patch_50">
    <path d="M 181.429042 92.751437 
L 179.674228 91.306152 
L 174.839835 91.113194 
L 170.612142 91.280947 
L 171.193624 93.601742 
L 172.891598 98.151535 
L 173.697434 102.4655 
L 177.933866 100.063821 
z
" clip-path="url(#p1aef5814c9)" style="fill: #ff7f0e; fill-opacity: 0.18"/>
   </g>
   <g id="patch_51">
    <path d="M 173.342406 80.682522 
L 172.197297 89.328504 
L 170.840255 92.137847 
L 181.859568 90.709786 
z
" clip-path="url(#p1aef5814c9)" style="fill: #ff7f0e; fill-opacity: 0.18"/>
   </g>
   <g id="patch_52">
    <path d="M 167.019994 93.417582 
L 163.464321 92.956513 
L 160.88856 100.095919 
L 168.609485 101.184031 
z
" clip-path="url(#p1aef5814c9)" style="fill: #ff7f0e; fill-opacity: 0.18"/>
   </g>
   <g id="patch_53">
    <path d="M 167.144055 11.381538 
L 162.320714 18.314652 
L 172.016771 18.360909 
z
" clip-path="url(#p1aef5814c9)" style="fill: #ff7f0e; fill-opacity: 0.18"/>
   </g>
   <g id="patch_54">
    <path d="M 232.760071 44.094971 
L 230.118935 41.073403 
L 222.428246 50.098884 
L 227.000937 49.234017 
L 231.253871 46.701297 
z
" clip-path="url(#p1aef5814c9)" style="fill: #ff7f0e; fill-opacity: 0.18"/>
   </g>
   <g id="patch_55">
    <path d="M 154.524508 224.79246 
L 151.313183 234.560629 
L 157.776151 236.499261 
L 161.127691 232.601987 
z
" clip-path="url(#p1aef5814c9)" style="fill: #1f77b4; fill-opacity: 0.18"/>
   </g>
   <g id="patch_56">
    <path d="M 159.632754 216.44773 
L 155.796608 217.02915 
L 150.121554 219.269943 
L 159.285098 225.659117 
z
" clip-path="url(#p1aef5814c9)" style="fill: #1f77b4; fill-opacity: 0.18"/>
   </g>
   <g id="patch_57">
    <path d="M 128.459905 215.079771 
L 119.76438 225.608052 
L 126.169414 224.929224 
L 129.429044 222.9282 
z
" clip-path="url(#p1aef5814c9)" style="fill: #1f77b4; fill-opacity: 0.18"/>
   </g>
   <g id="patch_58">
    <path d="M 125.15419 209.935785 
L 121.60346 210.783007 
L 120.04125 214.590193 
z
" clip-path="url(#p1aef5814c9)" style="fill: #1f77b4; fill-opacity: 0.18"/>
   </g>
   <g id="patch_59">
    <path d="M 99.912526 225.147089 
L 95.895579 226.995463 
L 92.847031 225.022528 
L 89.822646 226.768223 
L 90.623214 235.250421 
L 93.043704 234.229489 
L 94.908916 236.454162 
L 97.935713 230.331503 
z
" clip-path="url(#p1aef5814c9)" style="fill: #1f77b4; fill-opacity: 0.18"/>
   </g>
   <g id="patch_60">
    <path d="M 95.356372 215.044636 
L 89.718788 214.300768 
L 94.339125 220.207474 
z
" clip-path="url(#p1aef5814c9)" style="fill: #1f77b4; fill-opacity: 0.18"/>
   </g>
   <g id="patch_61">
    <path d="M 110.562672 249.130748 
L 100.268594 247.504985 
L 99.97793 251.077955 
L 104.610814 251.022539 
z
" clip-path="url(#p1aef5814c9)" style="fill: #1f77b4; fill-opacity: 0.18"/>
   </g>
   <g id="patch_62">
    <path d="M 109.654814 237.646524 
L 108.648802 234.804542 
L 103.766205 237.20999 
L 99.95316 235.243388 
L 100.450588 240.02133 
L 101.995083 244.670069 
L 104.449985 243.844323 
L 109.004889 240.577404 
z
" clip-path="url(#p1aef5814c9)" style="fill: #1f77b4; fill-opacity: 0.18"/>
   </g>
   <g id="patch_63">
    <path d="M 77.907553 235.686319 
L 74.379066 236.34098 
L 69.671621 235.979151 
L 68.334667 238.668852 
L 68.043079 245.715663 
L 74.258828 244.260602 
L 79.420337 242.940622 
z
" clip-path="url(#p1aef5814c9)" style="fill: #1f77b4; fill-opacity: 0.18"/>
   </g>
   <g id="patch_64">
    <path d="M 79.276523 227.02106 
L 71.279525 225.345815 
L 72.840236 234.686914 
z
" clip-path="url(#p1aef5814c9)" style="fill: #1f77b4; fill-opacity: 0.18"/>
   </g>
   <g id="patch_65">
    <path d="M 67.628607 237.129096 
L 57.532495 235.01417 
L 59.96536 242.958574 
L 60.310872 245.665242 
L 69.150611 246.1236 
z
" clip-path="url(#p1aef5814c9)" style="fill: #1f77b4; fill-opacity: 0.18"/>
   </g>
   <g id="patch_66">
    <path d="M 67.234809 228.110011 
L 58.504079 227.664072 
L 65.655895 235.43059 
z
" clip-path="url(#p1aef5814c9)" style="fill: #1f77b4; fill-opacity: 0.18"/>
   </g>
   <g id="patch_67">
    <path d="M 55.670223 205.05421 
L 49.817304 207.445951 
L 50.56353 213.181343 
L 57.277108 209.762066 
z
" clip-path="url(#p1aef5814c9)" style="fill: #1f77b4; fill-opacity: 0.18"/>
   </g>
   <g id="patch_68">
    <path d="M 57.611463 196.855306 
L 54.326942 195.330881 
L 51.013565 196.640469 
L 48.098415 194.595877 
L 49.699491 200.494857 
L 52.406545 204.548019 
L 55.505344 205.679003 
L 57.243308 201.059727 
z
" clip-path="url(#p1aef5814c9)" style="fill: #1f77b4; fill-opacity: 0.18"/>
   </g>
   <g id="patch_69">
    <path d="M 59.815035 176.639616 
L 67.627364 184.334008 
L 66.82794 180.741182 
z
" clip-path="url(#p1aef5814c9)" style="fill: #1f77b4; fill-opacity: 0.18"/>
   </g>
   <g id="patch_70">
    <path d="M 8.640274 175.185945 
L 7.049841 183.257358 
L 16.554437 182.936744 
z
" clip-path="url(#p1aef5814c9)" style="fill: #1f77b4; fill-opacity: 0.18"/>
   </g>
   <g id="patch_71">
    <path d="M 171.940947 86.971984 
L 172.203611 83.919495 
L 161.025054 85.910122 
L 161.711034 91.734172 
L 170.096834 91.750027 
L 169.416464 88.062774 
z
" clip-path="url(#p1aef5814c9)" style="fill: #ff7f0e; fill-opacity: 0.18"/>
   </g>
   <g id="patch_72">
    <path d="M 130.047623 391.101749 
L 120.003146 389.01542 
L 125.15419 394.826175 
z
" clip-path="url(#p1aef5814c9)" style="fill: #2ca02c; fill-opacity: 0.18"/>
   </g>
   <g id="line2d_1">
    <path d="M 95.174869 339.311377 
L 91.454882 340.258374 
L 88.845997 337.59552 
L 90.02543 342.67283 
L 90.350052 346.926117 
L 92.903016 349.301802 
L 98.838996 349.101498 
L 99.145409 346.006209 
L 95.174869 339.311377 
" clip-path="url(#p1aef5814c9)" style="fill: none; stroke: #2ca02c; stroke-width: 0.6; stroke-linecap: square"/>
   </g>
   <g id="line2d_2">
    <path d="M 66.857425 333.443842 
L 69.268153 327.745881 
L 65.443426 329.260993 
L 63.056694 329.425081 
L 59.25466 335.238946 
L 63.344448 338.60416 
L 65.448692 337.181325 
L 69.000716 338.705555 
L 66.857425 333.443842 
" clip-path="url(#p1aef5814c9)" style="fill: none; stroke: #2ca02c; stroke-width: 0.6; stroke-linecap: square"/>
   </g>
   <g id="line2d_3">
    <path d="M 211.944339 462.425475 
L 207.327697 466.727993 
L 211.903135 467.904063 
L 211.944339 462.425475 
" clip-path="url(#p1aef5814c9)" style="fill: none; stroke: #2ca02c; stroke-width: 0.6; stroke-linecap: square"/>
   </g>
   <g id="line2d_4">
    <path d="M 242.23583 493.97765 
L 232.564076 495.279215 
L 234.043827 503.280667 
L 242.23583 493.97765 
" clip-path="url(#p1aef5814c9)" style="fill: none; stroke: #2ca02c; stroke-width: 0.6; stroke-linecap: square"/>
   </g>
   <g id="line2d_5">
    <path d="M 207.327697 456.456305 
L 204.51042 460.762632 
L 208.076932 459.850811 
L 207.327697 456.456305 
" clip-path="url(#p1aef5814c9)" style="fill: none; stroke: #2ca02c; stroke-width: 0.6; stroke-linecap: square"/>
   </g>
   <g id="line2d_6">
    <path d="M 130.420452 402.993791 
L 126.046601 400.757963 
L 123.680636 401.44154 
L 119.987711 405.582638 
L 119.969587 408.845354 
L 122.616671 408.334706 
L 130.420452 402.993791 
" clip-path="url(#p1aef5814c9)" style="fill: none; stroke: #2ca02c; stroke-width: 0.6; stroke-linecap: square"/>
   </g>
   <g id="line2d_7">
    <path d="M 243.68144 507.502847 
L 240.11672 502.409008 
L 236.303521 503.025087 
L 234.496331 501.946071 
L 234.026163 509.092497 
L 236.978493 513.043091 
L 241.484402 513.612887 
L 243.757267 510.72982 
L 243.68144 507.502847 
" clip-path="url(#p1aef5814c9)" style="fill: none; stroke: #2ca02c; stroke-width: 0.6; stroke-linecap: square"/>
   </g>
   <g id="line2d_8">
    <path d="M 227.907171 493.527246 
L 227.871074 497.543058 
L 231.122725 497.052291 
L 227.907171 493.527246 
" clip-path="url(#p1aef5814c9)" style="fill: none; stroke: #2ca02c; stroke-width: 0.6; stroke-linecap: square"/>
   </g>
   <g id="line2d_9">
    <path d="M 293.116673 534.518267 
L 291.107863 535.080344 
L 288.716819 535.385178 
L 284.857856 533.746217 
L 284.572845 538.743572 
L 283.739292 542.23808 
L 291.947234 542.278571 
L 294.026163 544.458462 
L 293.116673 534.518267 
" clip-path="url(#p1aef5814c9)" style="fill: none; stroke: #2ca02c; stroke-width: 0.6; stroke-linecap: square"/>
   </g>
   <g id="line2d_10">
    <path d="M 147.384681 450.677428 
L 141.00263 450.79425 
L 140.342523 456.101847 
L 148.711464 462.246982 
L 147.384681 450.677428 
" clip-path="url(#p1aef5814c9)" style="fill: none; stroke: #2ca02c; stroke-width: 0.6; stroke-linecap: square"/>
   </g>
   <g id="line2d_11">
    <path d="M 109.816862 330.614343 
L 103.771998 328.726121 
L 101.309777 332.027036 
L 101.918964 338.787254 
L 108.877725 336.826638 
L 109.816862 330.614343 
" clip-path="url(#p1aef5814c9)" style="fill: none; stroke: #d62728; stroke-width: 0.6; stroke-linecap: square"/>
   </g>
   <g id="line2d_12">
    <path d="M 73.746583 368.921961 
L 73.795749 374.282798 
L 77.015072 374.738902 
L 73.746583 368.921961 
" clip-path="url(#p1aef5814c9)" style="fill: none; stroke: #2ca02c; stroke-width: 0.6; stroke-linecap: square"/>
   </g>
   <g id="line2d_13">
    <path d="M 78.819621 361.715725 
L 68.581603 358.03868 
L 68.734181 361.031616 
L 68.374022 363.429241 
L 69.466599 369.845679 
L 73.125635 368.764034 
L 78.485796 367.484123 
L 78.819621 361.715725 
" clip-path="url(#p1aef5814c9)" style="fill: none; stroke: #2ca02c; stroke-width: 0.6; stroke-linecap: square"/>
   </g>
   <g id="line2d_14">
    <path d="M 104.07534 298.213338 
L 101.056852 297.266296 
L 100.853962 308.187688 
L 109.490843 306.965317 
L 107.98637 304.659788 
L 104.07534 298.213338 
" clip-path="url(#p1aef5814c9)" style="fill: none; stroke: #d62728; stroke-width: 0.6; stroke-linecap: square"/>
   </g>
   <g id="line2d_15">
    <path d="M 79.386358 327.908408 
L 73.548535 329.69816 
L 72.059849 327.23101 
L 68.146067 330.87827 
L 72.860958 338.675412 
L 75.017605 336.414071 
L 78.578193 338.634112 
L 78.42063 335.062985 
L 79.386358 327.908408 
" clip-path="url(#p1aef5814c9)" style="fill: none; stroke: #2ca02c; stroke-width: 0.6; stroke-linecap: square"/>
   </g>
   <g id="line2d_16">
    <path d="M 66.830351 371.526579 
L 60.378566 374.486505 
L 65.716174 378.611072 
L 68.951936 380.004138 
L 66.830351 371.526579 
" clip-path="url(#p1aef5814c9)" style="fill: none; stroke: #2ca02c; stroke-width: 0.6; stroke-linecap: square"/>
   </g>
   <g id="line2d_17">
    <path d="M 67.173231 360.000119 
L 58.378023 358.420548 
L 59.647672 365.960947 
L 59.686187 369.523017 
L 67.401559 367.512689 
L 67.173231 360.000119 
" clip-path="url(#p1aef5814c9)" style="fill: none; stroke: #2ca02c; stroke-width: 0.6; stroke-linecap: square"/>
   </g>
   <g id="line2d_18">
    <path d="M 129.304612 340.243862 
L 125.128627 339.198208 
L 120.012332 339.964694 
L 121.911977 342.025895 
L 119.990545 344.52801 
L 121.984093 347.365497 
L 129.206684 346.86009 
L 130.420273 344.381224 
L 129.304612 340.243862 
" clip-path="url(#p1aef5814c9)" style="fill: none; stroke: #d62728; stroke-width: 0.6; stroke-linecap: square"/>
   </g>
   <g id="line2d_19">
    <path d="M 79.401289 319.812872 
L 77.38758 318.330899 
L 73.747259 318.259911 
L 68.905685 318.236407 
L 68.493045 322.784916 
L 70.590719 323.307109 
L 69.450265 326.05447 
L 78.982341 321.896569 
L 79.401289 319.812872 
" clip-path="url(#p1aef5814c9)" style="fill: none; stroke: #d62728; stroke-width: 0.6; stroke-linecap: square"/>
   </g>
   <g id="line2d_20">
    <path d="M 249.327642 216.143868 
L 245.776972 215.973083 
L 243.076147 215.718714 
L 244.642104 221.265236 
L 243.619921 225.018563 
L 250.635257 224.421201 
L 252.917916 225.671705 
L 253.227269 221.386359 
L 249.327642 216.143868 
" clip-path="url(#p1aef5814c9)" style="fill: none; stroke: #ff7f0e; stroke-width: 0.6; stroke-linecap: square"/>
   </g>
   <g id="line2d_21">
    <path d="M 274.363191 187.748474 
L 273.970357 184.864445 
L 271.81246 184.026027 
L 268.128988 185.984533 
L 264.063875 189.784747 
L 265.41634 191.574572 
L 274.72933 193.335249 
L 272.628957 189.951742 
L 274.363191 187.748474 
" clip-path="url(#p1aef5814c9)" style="fill: none; stroke: #ff7f0e; stroke-width: 0.6; stroke-linecap: square"/>
   </g>
   <g id="line2d_22">
    <path d="M 273.468258 176.008135 
L 270.508603 174.633272 
L 265.478324 176.136343 
L 265.902014 178.729281 
L 266.737141 184.937846 
L 273.282048 183.819789 
L 273.468258 176.008135 
" clip-path="url(#p1aef5814c9)" style="fill: none; stroke: #ff7f0e; stroke-width: 0.6; stroke-linecap: square"/>
   </g>
   <g id="line2d_23">
    <path d="M 242.186213 198.325009 
L 242.029293 195.994676 
L 236.755276 195.850542 
L 232.963726 194.216285 
L 232.837908 199.508949 
L 240.534272 203.575593 
L 243.352644 204.980903 
L 242.186213 198.325009 
" clip-path="url(#p1aef5814c9)" style="fill: none; stroke: #ff7f0e; stroke-width: 0.6; stroke-linecap: square"/>
   </g>
   <g id="line2d_24">
    <path d="M 230.575692 186.171445 
L 227.72224 183.74013 
L 224.517166 184.862227 
L 223.90524 187.980638 
L 221.8912 192.05759 
L 225.600247 194.187724 
L 233.033292 188.205409 
L 230.575692 186.171445 
" clip-path="url(#p1aef5814c9)" style="fill: none; stroke: #ff7f0e; stroke-width: 0.6; stroke-linecap: square"/>
   </g>
   <g id="line2d_25">
    <path d="M 232.397898 177.706894 
L 233.35987 173.435374 
L 231.064932 173.645743 
L 223.899674 174.82031 
L 222.209833 178.224118 
L 222.298445 183.5389 
L 232.834931 185.060238 
L 232.397898 177.706894 
" clip-path="url(#p1aef5814c9)" style="fill: none; stroke: #ff7f0e; stroke-width: 0.6; stroke-linecap: square"/>
   </g>
   <g id="line2d_26">
    <path d="M 244.156323 187.050221 
L 242.260959 185.358339 
L 235.043519 183.66955 
L 236.261829 186.223336 
L 233.338405 190.644423 
L 234.430404 194.709754 
L 243.778222 189.674133 
L 244.156323 187.050221 
" clip-path="url(#p1aef5814c9)" style="fill: none; stroke: #ff7f0e; stroke-width: 0.6; stroke-linecap: square"/>
   </g>
   <g id="line2d_27">
    <path d="M 283.20203 135.650061 
L 282.253393 132.764733 
L 273.703269 134.325331 
L 275.95465 142.962083 
L 283.072009 139.253011 
L 283.20203 135.650061 
" clip-path="url(#p1aef5814c9)" style="fill: none; stroke: #ff7f0e; stroke-width: 0.6; stroke-linecap: square"/>
   </g>
   <g id="line2d_28">
    <path d="M 273.720804 153.704048 
L 271.236526 154.069356 
L 266.544066 154.994203 
L 264.55722 160.044534 
L 273.057503 164.493813 
L 272.514859 160.303702 
L 273.720804 153.704048 
" clip-path="url(#p1aef5814c9)" style="fill: none; stroke: #ff7f0e; stroke-width: 0.6; stroke-linecap: square"/>
   </g>
   <g id="line2d_29">
    <path d="M 246.379484 204.118348 
L 244.866842 206.517185 
L 245.070274 210.607131 
L 244.620396 214.227507 
L 252.957574 211.804684 
L 246.379484 204.118348 
" clip-path="url(#p1aef5814c9)" style="fill: none; stroke: #ff7f0e; stroke-width: 0.6; stroke-linecap: square"/>
   </g>
   <g id="line2d_30">
    <path d="M 263.826245 196.457381 
L 261.781508 198.181992 
L 257.326023 193.872959 
L 252.987275 204.323329 
L 259.312606 205.288771 
L 261.979138 203.340051 
L 263.826245 196.457381 
" clip-path="url(#p1aef5814c9)" style="fill: none; stroke: #ff7f0e; stroke-width: 0.6; stroke-linecap: square"/>
   </g>
   <g id="line2d_31">
    <path d="M 157.128443 267.363627 
L 151.02536 267.629464 
L 155.969255 271.565915 
L 157.128443 267.363627 
" clip-path="url(#p1aef5814c9)" style="fill: none; stroke: #1f77b4; stroke-width: 0.6; stroke-linecap: square"/>
   </g>
   <g id="line2d_32">
    <path d="M 155.170674 255.592812 
L 150.03279 257.599032 
L 151.248006 263.940649 
L 155.969255 261.294227 
L 155.170674 255.592812 
" clip-path="url(#p1aef5814c9)" style="fill: none; stroke: #1f77b4; stroke-width: 0.6; stroke-linecap: square"/>
   </g>
   <g id="line2d_33">
    <path d="M 135.425879 302.38098 
L 131.60265 302.820196 
L 130.200403 306.035116 
L 135.425879 302.38098 
" clip-path="url(#p1aef5814c9)" style="fill: none; stroke: #2ca02c; stroke-width: 0.6; stroke-linecap: square"/>
   </g>
   <g id="line2d_34">
    <path d="M 151.623827 255.71934 
L 142.305017 255.344871 
L 140.004874 258.669288 
L 142.012055 261.376991 
L 139.771578 262.325131 
L 140.322235 264.432141 
L 139.86382 266.899185 
L 150.245598 265.066146 
L 151.623827 255.71934 
" clip-path="url(#p1aef5814c9)" style="fill: none; stroke: #1f77b4; stroke-width: 0.6; stroke-linecap: square"/>
   </g>
   <g id="line2d_35">
    <path d="M 150.574638 306.698287 
L 141.778213 313.517368 
L 149.071146 311.998013 
L 150.574638 306.698287 
" clip-path="url(#p1aef5814c9)" style="fill: none; stroke: #d62728; stroke-width: 0.6; stroke-linecap: square"/>
   </g>
   <g id="line2d_36">
    <path d="M 150.397179 301.797452 
L 143.56861 297.27736 
L 141.887375 300.671549 
L 141.60093 305.662929 
L 148.875115 305.856835 
L 150.397179 301.797452 
" clip-path="url(#p1aef5814c9)" style="fill: none; stroke: #d62728; stroke-width: 0.6; stroke-linecap: square"/>
   </g>
   <g id="line2d_37">
    <path d="M 11.316761 154.132572 
L 7.711581 154.064911 
L 8.269358 157.032408 
L 8.594754 160.329445 
L 8.418119 163.902399 
L 10.54174 162.252554 
L 16.619688 162.576315 
L 18.183246 160.222569 
L 11.316761 154.132572 
" clip-path="url(#p1aef5814c9)" style="fill: none; stroke: #1f77b4; stroke-width: 0.6; stroke-linecap: square"/>
   </g>
   <g id="line2d_38">
    <path d="M 13.43238 144.11915 
L 7.1534 147.596374 
L 6.471101 152.236534 
L 10.459242 152.400709 
L 14.669713 152.390961 
L 13.43238 144.11915 
" clip-path="url(#p1aef5814c9)" style="fill: none; stroke: #1f77b4; stroke-width: 0.6; stroke-linecap: square"/>
   </g>
   <g id="line2d_39">
    <path d="M 99.185256 174.882631 
L 88.432508 180.012911 
L 94.339125 179.12072 
L 99.185256 174.882631 
" clip-path="url(#p1aef5814c9)" style="fill: none; stroke: #1f77b4; stroke-width: 0.6; stroke-linecap: square"/>
   </g>
   <g id="line2d_40">
    <path d="M 17.738845 125.361641 
L 12.165619 127.762279 
L 17.029936 131.251612 
L 17.738845 125.361641 
" clip-path="url(#p1aef5814c9)" style="fill: none; stroke: #1f77b4; stroke-width: 0.6; stroke-linecap: square"/>
   </g>
   <g id="line2d_41">
    <path d="M 159.724266 200.700171 
L 159.802651 197.100038 
L 154.455552 195.792366 
L 151.956607 201.594496 
L 152.525148 204.446955 
L 158.035802 205.05141 
L 159.724266 200.700171 
" clip-path="url(#p1aef5814c9)" style="fill: none; stroke: #1f77b4; stroke-width: 0.6; stroke-linecap: square"/>
   </g>
   <g id="line2d_42">
    <path d="M 243.327951 64.584265 
L 235.306656 61.457997 
L 232.422814 63.552829 
L 234.640095 66.749224 
L 232.859162 70.357132 
L 236.736217 69.267214 
L 242.238881 71.559132 
L 243.327951 64.584265 
" clip-path="url(#p1aef5814c9)" style="fill: none; stroke: #ff7f0e; stroke-width: 0.6; stroke-linecap: square"/>
   </g>
   <g id="line2d_43">
    <path d="M 234.497744 50.359249 
L 238.142762 55.86046 
L 243.484077 57.940083 
L 234.497744 50.359249 
" clip-path="url(#p1aef5814c9)" style="fill: none; stroke: #ff7f0e; stroke-width: 0.6; stroke-linecap: square"/>
   </g>
   <g id="line2d_44">
    <path d="M 231.668502 65.395208 
L 233.855917 64.320426 
L 229.12061 62.162985 
L 224.772289 64.755188 
L 222.153056 67.259361 
L 231.310422 69.011207 
L 233.227319 70.40264 
L 231.668502 65.395208 
" clip-path="url(#p1aef5814c9)" style="fill: none; stroke: #ff7f0e; stroke-width: 0.6; stroke-linecap: square"/>
   </g>
   <g id="line2d_45">
    <path d="M 213.213091 29.528471 
L 206.645291 29.699186 
L 202.360808 32.114986 
L 202.595863 35.06117 
L 201.667498 41.016832 
L 209.590086 39.755495 
L 212.327015 35.887879 
L 213.213091 29.528471 
" clip-path="url(#p1aef5814c9)" style="fill: none; stroke: #ff7f0e; stroke-width: 0.6; stroke-linecap: square"/>
   </g>
   <g id="line2d_46">
    <path d="M 232.484064 52.662138 
L 230.4231 49.879378 
L 227.871074 55.86046 
L 231.214361 58.084216 
L 232.514371 61.585328 
L 232.484064 52.662138 
" clip-path="url(#p1aef5814c9)" style="fill: none; stroke: #ff7f0e; stroke-width: 0.6; stroke-linecap: square"/>
   </g>
   <g id="line2d_47">
    <path d="M 202.191074 73.545857 
L 196.763028 70.705154 
L 192.40575 79.200317 
L 202.255139 81.613335 
L 202.421729 78.118267 
L 202.191074 73.545857 
" clip-path="url(#p1aef5814c9)" style="fill: none; stroke: #ff7f0e; stroke-width: 0.6; stroke-linecap: square"/>
   </g>
   <g id="line2d_48">
    <path d="M 200.632612 64.362723 
L 200.117174 60.946662 
L 191.784164 65.63879 
L 191.546453 71.18141 
L 199.598152 69.556921 
L 202.557942 68.656349 
L 200.632612 64.362723 
" clip-path="url(#p1aef5814c9)" style="fill: none; stroke: #ff7f0e; stroke-width: 0.6; stroke-linecap: square"/>
   </g>
   <g id="line2d_49">
    <path d="M 181.429042 92.751437 
L 179.674228 91.306152 
L 174.839835 91.113194 
L 170.612142 91.280947 
L 171.193624 93.601742 
L 172.891598 98.151535 
L 173.697434 102.4655 
L 177.933866 100.063821 
L 181.429042 92.751437 
" clip-path="url(#p1aef5814c9)" style="fill: none; stroke: #ff7f0e; stroke-width: 0.6; stroke-linecap: square"/>
   </g>
   <g id="line2d_50">
    <path d="M 173.342406 80.682522 
L 172.197297 89.328504 
L 170.840255 92.137847 
L 181.859568 90.709786 
L 173.342406 80.682522 
" clip-path="url(#p1aef5814c9)" style="fill: none; stroke: #ff7f0e; stroke-width: 0.6; stroke-linecap: square"/>
   </g>
   <g id="line2d_51">
    <path d="M 167.019994 93.417582 
L 163.464321 92.956513 
L 160.88856 100.095919 
L 168.609485 101.184031 
L 167.019994 93.417582 
" clip-path="url(#p1aef5814c9)" style="fill: none; stroke: #ff7f0e; stroke-width: 0.6; stroke-linecap: square"/>
   </g>
   <g id="line2d_52">
    <path d="M 167.144055 11.381538 
L 162.320714 18.314652 
L 172.016771 18.360909 
L 167.144055 11.381538 
" clip-path="url(#p1aef5814c9)" style="fill: none; stroke: #ff7f0e; stroke-width: 0.6; stroke-linecap: square"/>
   </g>
   <g id="line2d_53">
    <path d="M 232.760071 44.094971 
L 230.118935 41.073403 
L 222.428246 50.098884 
L 227.000937 49.234017 
L 231.253871 46.701297 
L 232.760071 44.094971 
" clip-path="url(#p1aef5814c9)" style="fill: none; stroke: #ff7f0e; stroke-width: 0.6; stroke-linecap: square"/>
   </g>
   <g id="line2d_54">
    <path d="M 154.524508 224.79246 
L 151.313183 234.560629 
L 157.776151 236.499261 
L 161.127691 232.601987 
L 154.524508 224.79246 
" clip-path="url(#p1aef5814c9)" style="fill: none; stroke: #1f77b4; stroke-width: 0.6; stroke-linecap: square"/>
   </g>
   <g id="line2d_55">
    <path d="M 159.632754 216.44773 
L 155.796608 217.02915 
L 150.121554 219.269943 
L 159.285098 225.659117 
L 159.632754 216.44773 
" clip-path="url(#p1aef5814c9)" style="fill: none; stroke: #1f77b4; stroke-width: 0.6; stroke-linecap: square"/>
   </g>
   <g id="line2d_56">
    <path d="M 128.459905 215.079771 
L 119.76438 225.608052 
L 126.169414 224.929224 
L 129.429044 222.9282 
L 128.459905 215.079771 
" clip-path="url(#p1aef5814c9)" style="fill: none; stroke: #1f77b4; stroke-width: 0.6; stroke-linecap: square"/>
   </g>
   <g id="line2d_57">
    <path d="M 125.15419 209.935785 
L 121.60346 210.783007 
L 120.04125 214.590193 
L 125.15419 209.935785 
" clip-path="url(#p1aef5814c9)" style="fill: none; stroke: #1f77b4; stroke-width: 0.6; stroke-linecap: square"/>
   </g>
   <g id="line2d_58">
    <path d="M 99.912526 225.147089 
L 95.895579 226.995463 
L 92.847031 225.022528 
L 89.822646 226.768223 
L 90.623214 235.250421 
L 93.043704 234.229489 
L 94.908916 236.454162 
L 97.935713 230.331503 
L 99.912526 225.147089 
" clip-path="url(#p1aef5814c9)" style="fill: none; stroke: #1f77b4; stroke-width: 0.6; stroke-linecap: square"/>
   </g>
   <g id="line2d_59">
    <path d="M 95.356372 215.044636 
L 89.718788 214.300768 
L 94.339125 220.207474 
L 95.356372 215.044636 
" clip-path="url(#p1aef5814c9)" style="fill: none; stroke: #1f77b4; stroke-width: 0.6; stroke-linecap: square"/>
   </g>
   <g id="line2d_60">
    <path d="M 110.562672 249.130748 
L 100.268594 247.504985 
L 99.97793 251.077955 
L 104.610814 251.022539 
L 110.562672 249.130748 
" clip-path="url(#p1aef5814c9)" style="fill: none; stroke: #1f77b4; stroke-width: 0.6; stroke-linecap: square"/>
   </g>
   <g id="line2d_61">
    <path d="M 109.654814 237.646524 
L 108.648802 234.804542 
L 103.766205 237.20999 
L 99.95316 235.243388 
L 100.450588 240.02133 
L 101.995083 244.670069 
L 104.449985 243.844323 
L 109.004889 240.577404 
L 109.654814 237.646524 
" clip-path="url(#p1aef5814c9)" style="fill: none; stroke: #1f77b4; stroke-width: 0.6; stroke-linecap: square"/>
   </g>
   <g id="line2d_62">
    <path d="M 77.907553 235.686319 
L 74.379066 236.34098 
L 69.671621 235.979151 
L 68.334667 238.668852 
L 68.043079 245.715663 
L 74.258828 244.260602 
L 79.420337 242.940622 
L 77.907553 235.686319 
" clip-path="url(#p1aef5814c9)" style="fill: none; stroke: #1f77b4; stroke-width: 0.6; stroke-linecap: square"/>
   </g>
   <g id="line2d_63">
    <path d="M 79.276523 227.02106 
L 71.279525 225.345815 
L 72.840236 234.686914 
L 79.276523 227.02106 
" clip-path="url(#p1aef5814c9)" style="fill: none; stroke: #1f77b4; stroke-width: 0.6; stroke-linecap: square"/>
   </g>
   <g id="line2d_64">
    <path d="M 67.628607 237.129096 
L 57.532495 235.01417 
L 59.96536 242.958574 
L 60.310872 245.665242 
L 69.150611 246.1236 
L 67.628607 237.129096 
" clip-path="url(#p1aef5814c9)" style="fill: none; stroke: #1f77b4; stroke-width: 0.6; stroke-linecap: square"/>
   </g>
   <g id="line2d_65">
    <path d="M 67.234809 228.110011 
L 58.504079 227.664072 
L 65.655895 235.43059 
L 67.234809 228.110011 
" clip-path="url(#p1aef5814c9)" style="fill: none; stroke: #1f77b4; stroke-width: 0.6; stroke-linecap: square"/>
   </g>
   <g id="line2d_66">
    <path d="M 55.670223 205.05421 
L 49.817304 207.445951 
L 50.56353 213.181343 
L 57.277108 209.762066 
L 55.670223 205.05421 
" clip-path="url(#p1aef5814c9)" style="fill: none; stroke: #1f77b4; stroke-width: 0.6; stroke-linecap: square"/>
   </g>
   <g id="line2d_67">
    <path d="M 57.611463 196.855306 
L 54.326942 195.330881 
L 51.013565 196.640469 
L 48.098415 194.595877 
L 49.699491 200.494857 
L 52.406545 204.548019 
L 55.505344 205.679003 
L 57.243308 201.059727 
L 57.611463 196.855306 
" clip-path="url(#p1aef5814c9)" style="fill: none; stroke: #1f77b4; stroke-width: 0.6; stroke-linecap: square"/>
   </g>
   <g id="line2d_68">
    <path d="M 59.815035 176.639616 
L 67.627364 184.334008 
L 66.82794 180.741182 
L 59.815035 176.639616 
" clip-path="url(#p1aef5814c9)" style="fill: none; stroke: #1f77b4; stroke-width: 0.6; stroke-linecap: square"/>
   </g>
   <g id="line2d_69">
    <path d="M 8.640274 175.185945 
L 7.049841 183.257358 
L 16.554437 182.936744 
L 8.640274 175.185945 
" clip-path="url(#p1aef5814c9)" style="fill: none; stroke: #1f77b4; stroke-width: 0.6; stroke-linecap: square"/>
   </g>
   <g id="line2d_70">
    <path d="M 171.940947 86.971984 
L 172.203611 83.919495 
L 161.025054 85.910122 
L 161.711034 91.734172 
L 170.096834 91.750027 
L 169.416464 88.062774 
L 171.940947 86.971984 
" clip-path="url(#p1aef5814c9)" style="fill: none; stroke: #ff7f0e; stroke-width: 0.6; stroke-linecap: square"/>
   </g>
   <g id="line2d_71">
    <path d="M 130.047623 391.101749 
L 120.003146 389.01542 
L 125.15419 394.826175 
L 130.047623 391.101749 
" clip-path="url(#p1aef5814c9)" style="fill: none; stroke: #2ca02c; stroke-width: 0.6; stroke-linecap: square"/>
   </g>
   <g id="line2d_72">
    <path d="M 217.599385 281.837604 
L 157.128443 267.363627 
L 151.248006 263.940649 
L 141.201568 260.283637 
L 110.562672 249.130748 
L 101.345306 242.714323 
L 90.623214 235.250421 
L 72.840236 234.686914 
L 70.024683 236.006289 
L 67.628607 237.129096 
L 63.321458 227.910129 
L 53.128336 206.092929 
L 52.406545 204.548019 
L 16.554437 182.936744 
L 15.293808 162.505688 
L 14.669713 152.390961 
L 17.029936 131.251612 
L 59.815035 176.639616 
L 88.432508 180.012911 
L 95.356372 215.044636 
L 120.04125 214.590193 
L 128.459905 215.079771 
L 152.525148 204.446955 
L 156.344179 216.946158 
L 161.127691 232.601987 
L 217.599385 281.837604 
" clip-path="url(#p1aef5814c9)" style="fill: none; stroke: #1f77b4; stroke-width: 0.6; stroke-linecap: square"/>
   </g>
   <g id="line2d_73">
    <path d="M 217.599385 281.837604 
L 232.963726 194.216285 
L 233.338405 190.644423 
L 229.453708 185.215446 
L 223.127875 176.374927 
L 168.322838 99.783438 
L 170.096834 91.750027 
L 170.948947 91.267583 
L 171.377252 91.026159 
L 192.425292 79.162217 
L 191.546453 71.18141 
L 172.016771 18.360909 
L 202.579312 34.853719 
L 225.074672 46.993145 
L 230.4231 49.879378 
L 235.15206 51.34677 
L 233.855917 64.320426 
L 236.680572 69.282857 
L 273.703269 134.325331 
L 270.237333 154.266289 
L 266.48857 175.834477 
L 264.063875 189.784747 
L 260.463562 196.907367 
L 252.936815 211.810716 
L 246.39085 224.782616 
L 217.599385 281.837604 
" clip-path="url(#p1aef5814c9)" style="fill: none; stroke: #ff7f0e; stroke-width: 0.6; stroke-linecap: square"/>
   </g>
   <g id="line2d_74">
    <path d="M 217.599385 281.837604 
L 284.857856 533.746217 
L 240.11672 502.409008 
L 232.913589 497.169134 
L 227.907171 493.527246 
L 208.193806 465.920816 
L 204.51042 460.762632 
L 147.384681 450.677428 
L 127.890364 401.700459 
L 125.15419 394.826175 
L 73.795749 374.282798 
L 66.830351 371.526579 
L 67.349757 367.526187 
L 68.581603 358.03868 
L 69.000716 338.705555 
L 72.752294 338.495712 
L 88.845997 337.59552 
L 130.200403 306.035116 
L 217.599385 281.837604 
" clip-path="url(#p1aef5814c9)" style="fill: none; stroke: #2ca02c; stroke-width: 0.6; stroke-linecap: square"/>
   </g>
   <g id="line2d_75">
    <path d="M 217.599385 281.837604 
L 150.574638 306.698287 
L 141.60093 305.662929 
L 109.490843 306.965317 
L 79.401289 319.812872 
L 102.968225 329.803679 
L 125.128627 339.198208 
L 217.599385 281.837604 
" clip-path="url(#p1aef5814c9)" style="fill: none; stroke: #d62728; stroke-width: 0.6; stroke-linecap: square"/>
   </g>
   <g id="PathCollection_1">
    <defs>
     <path id="C0_0_c6450c3a1b" d="M 0 1.322876 
C 0.350831 1.322876 0.68734 1.183489 0.935414 0.935414 
C 1.183489 0.68734 1.322876 0.350831 1.322876 -0 
C 1.322876 -0.350831 1.183489 -0.68734 0.935414 -0.935414 
C 0.68734 -1.183489 0.350831 -1.322876 0 -1.322876 
C -0.350831 -1.322876 -0.68734 -1.183489 -0.935414 -0.935414 
C -1.183489 -0.68734 -1.322876 -0.350831 -1.322876 0 
C -1.322876 0.350831 -1.183489 0.68734 -0.935414 0.935414 
C -0.68734 1.183489 -0.350831 1.322876 0 1.322876 
z
"/>
    </defs>
    <g clip-path="url(#p1aef5814c9)">
     <use xlink:href="#C0_0_c6450c3a1b" x="157.128443" y="267.363627" style="fill: #1f77b4"/>
    </g>
    <g clip-path="url(#p1aef5814c9)">
     <use xlink:href="#C0_0_c6450c3a1b" x="151.248006" y="263.940649" style="fill: #1f77b4"/>
    </g>
    <g clip-path="url(#p1aef5814c9)">
     <use xlink:href="#C0_0_c6450c3a1b" x="141.201568" y="260.283637" style="fill: #1f77b4"/>
    </g>
    <g clip-path="url(#p1aef5814c9)">
     <use xlink:href="#C0_0_c6450c3a1b" x="110.562672" y="249.130748" style="fill: #1f77b4"/>
    </g>
    <g clip-path="url(#p1aef5814c9)">
     <use xlink:href="#C0_0_c6450c3a1b" x="101.345306" y="242.714323" style="fill: #1f77b4"/>
    </g>
    <g clip-path="url(#p1aef5814c9)">
     <use xlink:href="#C0_0_c6450c3a1b" x="90.623214" y="235.250421" style="fill: #1f77b4"/>
    </g>
    <g clip-path="url(#p1aef5814c9)">
     <use xlink:href="#C0_0_c6450c3a1b" x="72.840236" y="234.686914" style="fill: #1f77b4"/>
    </g>
    <g clip-path="url(#p1aef5814c9)">
     <use xlink:href="#C0_0_c6450c3a1b" x="70.024683" y="236.006289" style="fill: #1f77b4"/>
    </g>
    <g clip-path="url(#p1aef5814c9)">
     <use xlink:href="#C0_0_c6450c3a1b" x="67.628607" y="237.129096" style="fill: #1f77b4"/>
    </g>
    <g clip-path="url(#p1aef5814c9)">
     <use xlink:href="#C0_0_c6450c3a1b" x="63.321458" y="227.910129" style="fill: #1f77b4"/>
    </g>
    <g clip-path="url(#p1aef5814c9)">
     <use xlink:href="#C0_0_c6450c3a1b" x="53.128336" y="206.092929" style="fill: #1f77b4"/>
    </g>
    <g clip-path="url(#p1aef5814c9)">
     <use xlink:href="#C0_0_c6450c3a1b" x="52.406545" y="204.548019" style="fill: #1f77b4"/>
    </g>
    <g clip-path="url(#p1aef5814c9)">
     <use xlink:href="#C0_0_c6450c3a1b" x="16.554437" y="182.936744" style="fill: #1f77b4"/>
    </g>
    <g clip-path="url(#p1aef5814c9)">
     <use xlink:href="#C0_0_c6450c3a1b" x="15.293808" y="162.505688" style="fill: #1f77b4"/>
    </g>
    <g clip-path="url(#p1aef5814c9)">
     <use xlink:href="#C0_0_c6450c3a1b" x="14.669713" y="152.390961" style="fill: #1f77b4"/>
    </g>
    <g clip-path="url(#p1aef5814c9)">
     <use xlink:href="#C0_0_c6450c3a1b" x="17.029936" y="131.251612" style="fill: #1f77b4"/>
    </g>
    <g clip-path="url(#p1aef5814c9)">
     <use xlink:href="#C0_0_c6450c3a1b" x="59.815035" y="176.639616" style="fill: #1f77b4"/>
    </g>
    <g clip-path="url(#p1aef5814c9)">
     <use xlink:href="#C0_0_c6450c3a1b" x="88.432508" y="180.012911" style="fill: #1f77b4"/>
    </g>
    <g clip-path="url(#p1aef5814c9)">
     <use xlink:href="#C0_0_c6450c3a1b" x="95.356372" y="215.044636" style="fill: #1f77b4"/>
    </g>
    <g clip-path="url(#p1aef5814c9)">
     <use xlink:href="#C0_0_c6450c3a1b" x="120.04125" y="214.590193" style="fill: #1f77b4"/>
    </g>
    <g clip-path="url(#p1aef5814c9)">
     <use xlink:href="#C0_0_c6450c3a1b" x="128.459905" y="215.079771" style="fill: #1f77b4"/>
    </g>
    <g clip-path="url(#p1aef5814c9)">
     <use xlink:href="#C0_0_c6450c3a1b" x="152.525148" y="204.446955" style="fill: #1f77b4"/>
    </g>
    <g clip-path="url(#p1aef5814c9)">
     <use xlink:href="#C0_0_c6450c3a1b" x="156.344179" y="216.946158" style="fill: #1f77b4"/>
    </g>
    <g clip-path="url(#p1aef5814c9)">
     <use xlink:href="#C0_0_c6450c3a1b" x="161.127691" y="232.601987" style="fill: #1f77b4"/>
    </g>
   </g>
   <g id="PathCollection_2">
    <defs>
     <path id="C1_0_be595022dd" d="M 0 1.322876 
C 0.350831 1.322876 0.68734 1.183489 0.935414 0.935414 
C 1.183489 0.68734 1.322876 0.350831 1.322876 -0 
C 1.322876 -0.350831 1.183489 -0.68734 0.935414 -0.935414 
C 0.68734 -1.183489 0.350831 -1.322876 0 -1.322876 
C -0.350831 -1.322876 -0.68734 -1.183489 -0.935414 -0.935414 
C -1.183489 -0.68734 -1.322876 -0.350831 -1.322876 0 
C -1.322876 0.350831 -1.183489 0.68734 -0.935414 0.935414 
C -0.68734 1.183489 -0.350831 1.322876 0 1.322876 
z
"/>
    </defs>
    <g clip-path="url(#p1aef5814c9)">
     <use xlink:href="#C1_0_be595022dd" x="232.963726" y="194.216285" style="fill: #ff7f0e"/>
    </g>
    <g clip-path="url(#p1aef5814c9)">
     <use xlink:href="#C1_0_be595022dd" x="233.338405" y="190.644423" style="fill: #ff7f0e"/>
    </g>
    <g clip-path="url(#p1aef5814c9)">
     <use xlink:href="#C1_0_be595022dd" x="229.453708" y="185.215446" style="fill: #ff7f0e"/>
    </g>
    <g clip-path="url(#p1aef5814c9)">
     <use xlink:href="#C1_0_be595022dd" x="223.127875" y="176.374927" style="fill: #ff7f0e"/>
    </g>
    <g clip-path="url(#p1aef5814c9)">
     <use xlink:href="#C1_0_be595022dd" x="168.322838" y="99.783438" style="fill: #ff7f0e"/>
    </g>
    <g clip-path="url(#p1aef5814c9)">
     <use xlink:href="#C1_0_be595022dd" x="170.096834" y="91.750027" style="fill: #ff7f0e"/>
    </g>
    <g clip-path="url(#p1aef5814c9)">
     <use xlink:href="#C1_0_be595022dd" x="170.948947" y="91.267583" style="fill: #ff7f0e"/>
    </g>
    <g clip-path="url(#p1aef5814c9)">
     <use xlink:href="#C1_0_be595022dd" x="171.377252" y="91.026159" style="fill: #ff7f0e"/>
    </g>
    <g clip-path="url(#p1aef5814c9)">
     <use xlink:href="#C1_0_be595022dd" x="192.425292" y="79.162217" style="fill: #ff7f0e"/>
    </g>
    <g clip-path="url(#p1aef5814c9)">
     <use xlink:href="#C1_0_be595022dd" x="191.546453" y="71.18141" style="fill: #ff7f0e"/>
    </g>
    <g clip-path="url(#p1aef5814c9)">
     <use xlink:href="#C1_0_be595022dd" x="172.016771" y="18.360909" style="fill: #ff7f0e"/>
    </g>
    <g clip-path="url(#p1aef5814c9)">
     <use xlink:href="#C1_0_be595022dd" x="202.579312" y="34.853719" style="fill: #ff7f0e"/>
    </g>
    <g clip-path="url(#p1aef5814c9)">
     <use xlink:href="#C1_0_be595022dd" x="225.074672" y="46.993145" style="fill: #ff7f0e"/>
    </g>
    <g clip-path="url(#p1aef5814c9)">
     <use xlink:href="#C1_0_be595022dd" x="230.4231" y="49.879378" style="fill: #ff7f0e"/>
    </g>
    <g clip-path="url(#p1aef5814c9)">
     <use xlink:href="#C1_0_be595022dd" x="235.15206" y="51.34677" style="fill: #ff7f0e"/>
    </g>
    <g clip-path="url(#p1aef5814c9)">
     <use xlink:href="#C1_0_be595022dd" x="233.855917" y="64.320426" style="fill: #ff7f0e"/>
    </g>
    <g clip-path="url(#p1aef5814c9)">
     <use xlink:href="#C1_0_be595022dd" x="236.680572" y="69.282857" style="fill: #ff7f0e"/>
    </g>
    <g clip-path="url(#p1aef5814c9)">
     <use xlink:href="#C1_0_be595022dd" x="273.703269" y="134.325331" style="fill: #ff7f0e"/>
    </g>
    <g clip-path="url(#p1aef5814c9)">
     <use xlink:href="#C1_0_be595022dd" x="270.237333" y="154.266289" style="fill: #ff7f0e"/>
    </g>
    <g clip-path="url(#p1aef5814c9)">
     <use xlink:href="#C1_0_be595022dd" x="266.48857" y="175.834477" style="fill: #ff7f0e"/>
    </g>
    <g clip-path="url(#p1aef5814c9)">
     <use xlink:href="#C1_0_be595022dd" x="264.063875" y="189.784747" style="fill: #ff7f0e"/>
    </g>
    <g clip-path="url(#p1aef5814c9)">
     <use xlink:href="#C1_0_be595022dd" x="260.463562" y="196.907367" style="fill: #ff7f0e"/>
    </g>
    <g clip-path="url(#p1aef5814c9)">
     <use xlink:href="#C1_0_be595022dd" x="252.936815" y="211.810716" style="fill: #ff7f0e"/>
    </g>
    <g clip-path="url(#p1aef5814c9)">
     <use xlink:href="#C1_0_be595022dd" x="246.39085" y="224.782616" style="fill: #ff7f0e"/>
    </g>
   </g>
   <g id="PathCollection_3">
    <defs>
     <path id="C2_0_39e296b31e" d="M 0 1.322876 
C 0.350831 1.322876 0.68734 1.183489 0.935414 0.935414 
C 1.183489 0.68734 1.322876 0.350831 1.322876 -0 
C 1.322876 -0.350831 1.183489 -0.68734 0.935414 -0.935414 
C 0.68734 -1.183489 0.350831 -1.322876 0 -1.322876 
C -0.350831 -1.322876 -0.68734 -1.183489 -0.935414 -0.935414 
C -1.183489 -0.68734 -1.322876 -0.350831 -1.322876 0 
C -1.322876 0.350831 -1.183489 0.68734 -0.935414 0.935414 
C -0.68734 1.183489 -0.350831 1.322876 0 1.322876 
z
"/>
    </defs>
    <g clip-path="url(#p1aef5814c9)">
     <use xlink:href="#C2_0_39e296b31e" x="284.857856" y="533.746217" style="fill: #2ca02c"/>
    </g>
    <g clip-path="url(#p1aef5814c9)">
     <use xlink:href="#C2_0_39e296b31e" x="240.11672" y="502.409008" style="fill: #2ca02c"/>
    </g>
    <g clip-path="url(#p1aef5814c9)">
     <use xlink:href="#C2_0_39e296b31e" x="232.913589" y="497.169134" style="fill: #2ca02c"/>
    </g>
    <g clip-path="url(#p1aef5814c9)">
     <use xlink:href="#C2_0_39e296b31e" x="227.907171" y="493.527246" style="fill: #2ca02c"/>
    </g>
    <g clip-path="url(#p1aef5814c9)">
     <use xlink:href="#C2_0_39e296b31e" x="208.193806" y="465.920816" style="fill: #2ca02c"/>
    </g>
    <g clip-path="url(#p1aef5814c9)">
     <use xlink:href="#C2_0_39e296b31e" x="204.51042" y="460.762632" style="fill: #2ca02c"/>
    </g>
    <g clip-path="url(#p1aef5814c9)">
     <use xlink:href="#C2_0_39e296b31e" x="147.384681" y="450.677428" style="fill: #2ca02c"/>
    </g>
    <g clip-path="url(#p1aef5814c9)">
     <use xlink:href="#C2_0_39e296b31e" x="127.890364" y="401.700459" style="fill: #2ca02c"/>
    </g>
    <g clip-path="url(#p1aef5814c9)">
     <use xlink:href="#C2_0_39e296b31e" x="125.15419" y="394.826175" style="fill: #2ca02c"/>
    </g>
    <g clip-path="url(#p1aef5814c9)">
     <use xlink:href="#C2_0_39e296b31e" x="73.795749" y="374.282798" style="fill: #2ca02c"/>
    </g>
    <g clip-path="url(#p1aef5814c9)">
     <use xlink:href="#C2_0_39e296b31e" x="66.830351" y="371.526579" style="fill: #2ca02c"/>
    </g>
    <g clip-path="url(#p1aef5814c9)">
     <use xlink:href="#C2_0_39e296b31e" x="67.349757" y="367.526187" style="fill: #2ca02c"/>
    </g>
    <g clip-path="url(#p1aef5814c9)">
     <use xlink:href="#C2_0_39e296b31e" x="68.581603" y="358.03868" style="fill: #2ca02c"/>
    </g>
    <g clip-path="url(#p1aef5814c9)">
     <use xlink:href="#C2_0_39e296b31e" x="69.000716" y="338.705555" style="fill: #2ca02c"/>
    </g>
    <g clip-path="url(#p1aef5814c9)">
     <use xlink:href="#C2_0_39e296b31e" x="72.752294" y="338.495712" style="fill: #2ca02c"/>
    </g>
    <g clip-path="url(#p1aef5814c9)">
     <use xlink:href="#C2_0_39e296b31e" x="88.845997" y="337.59552" style="fill: #2ca02c"/>
    </g>
    <g clip-path="url(#p1aef5814c9)">
     <use xlink:href="#C2_0_39e296b31e" x="130.200403" y="306.035116" style="fill: #2ca02c"/>
    </g>
   </g>
   <g id="PathCollection_4">
    <defs>
     <path id="C3_0_459afc39d3" d="M 0 1.322876 
C 0.350831 1.322876 0.68734 1.183489 0.935414 0.935414 
C 1.183489 0.68734 1.322876 0.350831 1.322876 -0 
C 1.322876 -0.350831 1.183489 -0.68734 0.935414 -0.935414 
C 0.68734 -1.183489 0.350831 -1.322876 0 -1.322876 
C -0.350831 -1.322876 -0.68734 -1.183489 -0.935414 -0.935414 
C -1.183489 -0.68734 -1.322876 -0.350831 -1.322876 0 
C -1.322876 0.350831 -1.183489 0.68734 -0.935414 0.935414 
C -0.68734 1.183489 -0.350831 1.322876 0 1.322876 
z
"/>
    </defs>
    <g clip-path="url(#p1aef5814c9)">
     <use xlink:href="#C3_0_459afc39d3" x="150.574638" y="306.698287" style="fill: #d62728"/>
    </g>
    <g clip-path="url(#p1aef5814c9)">
     <use xlink:href="#C3_0_459afc39d3" x="141.60093" y="305.662929" style="fill: #d62728"/>
    </g>
    <g clip-path="url(#p1aef5814c9)">
     <use xlink:href="#C3_0_459afc39d3" x="109.490843" y="306.965317" style="fill: #d62728"/>
    </g>
    <g clip-path="url(#p1aef5814c9)">
     <use xlink:href="#C3_0_459afc39d3" x="79.401289" y="319.812872" style="fill: #d62728"/>
    </g>
    <g clip-path="url(#p1aef5814c9)">
     <use xlink:href="#C3_0_459afc39d3" x="102.968225" y="329.803679" style="fill: #d62728"/>
    </g>
    <g clip-path="url(#p1aef5814c9)">
     <use xlink:href="#C3_0_459afc39d3" x="125.128627" y="339.198208" style="fill: #d62728"/>
    </g>
   </g>
   <g id="PathCollection_5">
    <defs>
     <path id="m6348f898de" d="M 0 1.5 
C 0.397805 1.5 0.77937 1.341951 1.06066 1.06066 
C 1.341951 0.77937 1.5 0.397805 1.5 0 
C 1.5 -0.397805 1.341951 -0.77937 1.06066 -1.06066 
C 0.77937 -1.341951 0.397805 -1.5 0 -1.5 
C -0.397805 -1.5 -0.77937 -1.341951 -1.06066 -1.06066 
C -1.341951 -0.77937 -1.5 -0.397805 -1.5 0 
C -1.5 0.397805 -1.341951 0.77937 -1.06066 1.06066 
C -0.77937 1.341951 -0.397805 1.5 0 1.5 
z
" style="stroke: #000000"/>
    </defs>
    <g clip-path="url(#p1aef5814c9)">
     <use xlink:href="#m6348f898de" x="217.599385" y="281.837604" style="stroke: #000000"/>
    </g>
   </g>
  </g>
 </g>
 <defs>
  <clipPath id="p1aef5814c9">
   <rect x="0.72" y="0.72" width="299.057264" height="554.4"/>
  </clipPath>
 </defs>
</svg>
